<svg xmlns="http://www.w3.org/2000/svg" xmlns:xlink="http://www.w3.org/1999/xlink" width="885" zoomAndPan="magnify" viewBox="0 0 663.75 327.749992" height="437" preserveAspectRatio="xMidYMid meet" version="1.0"><defs><clipPath id="35fe162dcd"><path d="M 0.128906 0 L 663.371094 0 L 663.371094 327.5 L 0.128906 327.5 Z M 0.128906 0 " clip-rule="nonzero"/></clipPath></defs><g clip-path="url(#35fe162dcd)"><path fill="#ffffff" d="M 0.128906 0 L 663.371094 0 L 663.371094 327.5 L 0.128906 327.5 Z M 0.128906 0 " fill-opacity="1" fill-rule="nonzero"/><path fill="#ffffff" d="M 0.128906 0 L 663.371094 0 L 663.371094 327.5 L 0.128906 327.5 Z M 0.128906 0 " fill-opacity="1" fill-rule="nonzero"/></g><path fill="#ff1200" d="M 13.617188 2.25 C 13.617188 3.074219 3.425781 69.773438 2.675781 73.96875 L 2.226562 76.441406 L 11.667969 76.441406 C 18.5625 76.441406 21.261719 76.21875 21.488281 75.46875 C 22.085938 73.742188 27.109375 35.074219 27.109375 31.925781 C 27.183594 29.753906 29.132812 35.523438 33.851562 51.859375 C 37.523438 64.527344 40.671875 75.242188 40.972656 75.691406 C 41.195312 76.066406 44.269531 76.441406 47.714844 76.441406 C 52.960938 76.441406 54.160156 76.21875 54.6875 75.09375 C 55.0625 74.417969 58.207031 63.925781 61.65625 51.785156 L 67.953125 29.753906 L 68.476562 35.296875 C 69.300781 43.617188 73.648438 75.242188 74.023438 75.84375 C 74.472656 76.515625 93.058594 76.667969 93.058594 76.066406 C 93.058594 75.84375 90.507812 59.203125 87.4375 39.195312 C 84.363281 19.109375 81.816406 2.398438 81.816406 2.097656 C 81.816406 1.796875 77.167969 1.5 71.472656 1.5 L 61.132812 1.5 L 58.359375 11.015625 C 56.785156 16.335938 53.789062 26.679688 51.613281 34.097656 L 47.640625 47.589844 L 40.972656 24.582031 L 34.300781 1.5 L 23.960938 1.5 C 17.441406 1.5 13.617188 1.796875 13.617188 2.25 Z M 13.617188 2.25 " fill-opacity="1" fill-rule="nonzero"/><path fill="#ff1200" d="M 103.699219 38.746094 L 103.925781 76.066406 L 113.515625 76.292969 L 123.035156 76.515625 L 123.035156 47.589844 L 129.855469 59.203125 C 133.601562 65.574219 137.5 72.09375 138.472656 73.59375 L 140.269531 76.441406 L 151.511719 76.441406 C 157.734375 76.441406 162.753906 76.21875 162.753906 75.992188 C 162.753906 75.765625 158.40625 69.097656 153.011719 61.152344 C 147.691406 53.210938 143.269531 46.539062 143.269531 46.316406 C 143.269531 46.089844 144.542969 45.566406 146.191406 45.117188 C 150.3125 43.839844 155.484375 38.96875 157.433594 34.472656 C 159.230469 30.277344 159.679688 22.484375 158.332031 17.460938 C 156.609375 11.015625 150.6875 5.019531 144.09375 2.921875 C 142.445312 2.398438 133.824219 1.875 122.433594 1.722656 L 103.550781 1.347656 Z M 132.925781 17.984375 C 137.125 19.183594 138.773438 21.808594 138.773438 27.128906 C 138.773438 30.800781 138.472656 31.851562 136.972656 33.347656 C 134.949219 35.371094 130.753906 36.722656 126.257812 36.722656 L 123.035156 36.722656 L 123.035156 17.238281 L 126.632812 17.238281 C 128.578125 17.238281 131.429688 17.613281 132.925781 17.984375 Z M 132.925781 17.984375 " fill-opacity="1" fill-rule="nonzero"/><path fill="#ff1200" d="M 248.039062 35.296875 C 229.378906 53.058594 211.765625 69.921875 208.84375 72.769531 L 203.597656 77.941406 L 221.210938 77.941406 L 238.820312 77.867188 L 260.40625 57.179688 L 282.0625 36.496094 L 288.132812 42.492188 C 291.503906 45.714844 301.25 55.082031 309.71875 63.175781 L 325.230469 77.941406 L 342.691406 77.789062 L 360.152344 77.566406 L 321.035156 40.246094 L 281.988281 2.996094 Z M 248.039062 35.296875 " fill-opacity="1" fill-rule="nonzero"/><path fill="#ff1200" d="M 342.765625 3.671875 C 342.917969 4.046875 360.378906 20.910156 381.585938 41.144531 L 420.183594 77.941406 L 661.875 77.941406 L 661.875 2.996094 L 502.171875 2.996094 C 410.363281 2.996094 342.617188 3.296875 342.765625 3.671875 Z M 342.765625 3.671875 " fill-opacity="1" fill-rule="nonzero"/><path fill="#ff1200" d="M 177.890625 57.480469 C 176.917969 57.632812 175.042969 58.980469 173.695312 60.328125 C 167.324219 66.699219 170.996094 76.890625 179.914062 77.789062 C 193.253906 79.066406 195.503906 59.203125 182.238281 57.480469 C 180.816406 57.257812 178.867188 57.257812 177.890625 57.480469 Z M 177.890625 57.480469 " fill-opacity="1" fill-rule="nonzero"/><path fill="#ff1200" d="M 40.074219 99.222656 C 29.730469 101.171875 21.5625 106.269531 15.339844 114.585938 C 11.070312 120.207031 9.046875 126.203125 8.597656 134.597656 C 7.472656 153.859375 15.640625 163.226562 39.472656 170.195312 C 56.109375 174.992188 60.082031 177.988281 60.082031 185.785156 C 60.082031 190.730469 58.285156 193.878906 54.238281 196.199219 C 45.320312 201.148438 33.777344 197.847656 21.9375 186.832031 L 16.914062 182.261719 L 9.644531 194.328125 L 2.300781 206.46875 L 5.148438 209.015625 C 12.269531 215.234375 20.585938 219.882812 29.054688 222.207031 C 36.175781 224.078125 48.839844 224.527344 56.335938 223.03125 C 73.945312 219.582031 86.3125 207.964844 89.835938 191.628906 C 91.332031 184.585938 90.808594 174.316406 88.636719 168.546875 C 84.140625 156.554688 78.21875 152.433594 56.410156 145.839844 C 45.019531 142.390625 41.722656 140.816406 40.222656 137.894531 C 38.574219 134.671875 38.796875 130.25 40.746094 127.777344 C 42.996094 124.855469 46.519531 123.65625 52.511719 123.65625 C 58.734375 123.65625 63.828125 125.378906 70.5 129.652344 C 75.070312 132.648438 75.144531 132.648438 75.746094 130.925781 C 76.121094 130.027344 78.292969 124.929688 80.691406 119.609375 C 83.015625 114.289062 84.738281 109.492188 84.515625 108.96875 C 83.914062 107.46875 72.222656 102.070312 65.851562 100.5 C 58.058594 98.476562 46.890625 97.949219 40.074219 99.222656 Z M 40.074219 99.222656 " fill-opacity="1" fill-rule="nonzero"/><path fill="#ff1200" d="M 610.988281 99.300781 C 603.117188 100.722656 595.699219 104.621094 590.226562 110.089844 C 582.957031 117.359375 579.4375 126.203125 579.4375 137.144531 C 579.4375 154.832031 587.679688 163.523438 610.539062 170.195312 C 627.175781 174.992188 631.148438 177.988281 631.148438 185.785156 C 631.148438 190.730469 629.347656 193.878906 625.300781 196.199219 C 616.382812 201.148438 604.839844 197.847656 593 186.832031 L 587.980469 182.261719 L 580.710938 194.328125 L 573.367188 206.46875 L 576.214844 209.015625 C 583.332031 215.234375 591.652344 219.882812 600.121094 222.207031 C 607.238281 224.078125 619.90625 224.527344 627.398438 223.03125 C 645.011719 219.582031 657.375 207.964844 660.898438 191.628906 C 662.398438 184.585938 661.875 174.316406 659.699219 168.546875 C 655.203125 156.554688 649.28125 152.433594 627.472656 145.839844 C 616.082031 142.390625 612.785156 140.816406 611.285156 137.894531 C 609.636719 134.671875 609.863281 130.25 611.8125 127.777344 C 614.058594 124.855469 617.582031 123.65625 623.578125 123.65625 C 629.796875 123.65625 634.894531 125.378906 641.5625 129.652344 C 646.136719 132.648438 646.210938 132.648438 646.808594 130.925781 C 647.183594 130.027344 649.359375 124.929688 651.757812 119.609375 C 654.078125 114.289062 655.804688 109.492188 655.578125 108.96875 C 654.976562 107.46875 643.289062 102.070312 636.917969 100.5 C 629.046875 98.476562 617.957031 97.949219 610.988281 99.300781 Z M 610.988281 99.300781 " fill-opacity="1" fill-rule="nonzero"/><path fill="#ff1200" d="M 108.796875 161.128906 L 108.796875 221.082031 L 182.238281 221.082031 L 182.238281 194.101562 L 141.019531 194.101562 L 141.019531 173.867188 L 179.992188 173.867188 L 179.992188 148.386719 L 141.019531 148.386719 L 141.019531 127.402344 L 182.238281 127.402344 L 182.238281 101.171875 L 108.796875 101.171875 Z M 108.796875 161.128906 " fill-opacity="1" fill-rule="nonzero"/><path fill="#ff1200" d="M 203.222656 161.128906 L 203.222656 221.082031 L 271.421875 221.082031 L 271.421875 192.601562 L 236.199219 192.601562 L 236.199219 101.171875 L 203.222656 101.171875 Z M 203.222656 161.128906 " fill-opacity="1" fill-rule="nonzero"/><path fill="#ff1200" d="M 327.628906 146.886719 L 327.628906 192.601562 L 292.40625 192.601562 L 292.40625 221.082031 L 360.601562 221.082031 L 360.601562 101.171875 L 327.628906 101.171875 Z M 327.628906 146.886719 " fill-opacity="1" fill-rule="nonzero"/><path fill="#ff1200" d="M 381.210938 102.070312 C 380.988281 102.597656 380.914062 129.5 380.988281 161.875 L 381.210938 220.707031 L 417.785156 220.929688 L 454.28125 221.082031 L 454.28125 194.101562 L 413.0625 194.101562 L 413.0625 173.867188 L 452.035156 173.867188 L 452.035156 148.386719 L 413.0625 148.386719 L 413.0625 127.402344 L 454.28125 127.402344 L 454.28125 101.171875 L 417.933594 101.171875 C 389.53125 101.171875 381.4375 101.398438 381.210938 102.070312 Z M 381.210938 102.070312 " fill-opacity="1" fill-rule="nonzero"/><path fill="#ff1200" d="M 476.015625 161.128906 L 476.015625 221.082031 L 506.742188 221.082031 L 506.890625 198.296875 L 507.117188 175.515625 L 520.382812 198.074219 L 533.570312 220.707031 L 552.007812 220.929688 C 562.125 221.007812 570.441406 220.929688 570.441406 220.707031 C 570.441406 220.480469 563.398438 209.839844 554.703125 197.023438 C 546.085938 184.210938 538.96875 173.492188 538.96875 173.191406 C 538.96875 172.894531 540.390625 172.21875 542.191406 171.695312 C 550.882812 169.070312 559.277344 161.652344 562.199219 153.933594 C 566.769531 141.640625 565.121094 126.578125 558.152344 116.386719 C 554.703125 111.289062 547.808594 106.269531 541.515625 104.320312 C 534.097656 101.921875 524.351562 101.246094 498.722656 101.171875 L 476.015625 101.171875 Z M 525.550781 128.976562 C 530.125 131.449219 532.222656 135.722656 532.222656 142.617188 C 532.222656 145.390625 531.847656 148.460938 531.398438 149.359375 C 528.476562 154.980469 523.003906 157.378906 512.960938 157.378906 L 506.742188 157.378906 L 506.742188 126.429688 L 514.460938 126.804688 C 520.832031 127.101562 522.78125 127.476562 525.550781 128.976562 Z M 525.550781 128.976562 " fill-opacity="1" fill-rule="nonzero"/><path fill="#ff1200" d="M 396.949219 246.636719 C 384.359375 248.210938 371.769531 256.902344 366.296875 267.84375 C 353.410156 293.550781 371.019531 323.453125 399.949219 325.027344 C 419.433594 326.152344 437.34375 313.261719 441.464844 295.273438 C 443.488281 286.582031 442.066406 275.339844 438.09375 267.394531 C 435.84375 262.898438 429.027344 255.554688 424.304688 252.558594 C 417.035156 247.910156 406.019531 245.511719 396.949219 246.636719 Z M 410.515625 265.898438 C 417.710938 269.644531 421.605469 276.613281 421.605469 285.90625 C 421.605469 292.800781 420.109375 296.921875 415.984375 301.644531 C 408.867188 309.738281 395.152344 309.515625 388.03125 301.121094 C 384.585938 297.148438 383.085938 292.425781 383.085938 285.90625 C 383.085938 275.039062 388.105469 267.472656 397.324219 264.472656 C 400.324219 263.5 407.292969 264.25 410.515625 265.898438 Z M 410.515625 265.898438 " fill-opacity="1" fill-rule="nonzero"/><path fill="#ff1200" d="M 630.398438 246.5625 C 618.554688 248.585938 610.238281 257.804688 609.9375 269.121094 C 609.636719 281.859375 614.359375 286.804688 631.671875 292.203125 C 640.214844 294.824219 642.386719 296.625 642.386719 301.046875 C 642.386719 306.140625 639.164062 308.765625 632.871094 308.765625 C 628.148438 308.691406 623.800781 306.667969 619.15625 302.320312 C 617.058594 300.371094 615.257812 298.945312 615.109375 299.097656 C 615.035156 299.246094 612.9375 302.769531 610.460938 306.816406 L 606.117188 314.234375 L 609.039062 316.785156 C 622.078125 328.023438 644.261719 328.101562 654.828125 316.859375 C 660.074219 311.238281 661.421875 307.566406 661.5 299.023438 C 661.5 292.800781 661.273438 291.378906 659.550781 288.15625 C 656.703125 282.535156 652.804688 280.0625 641.714844 276.539062 C 636.394531 274.890625 631.597656 272.941406 630.921875 272.191406 C 628.222656 269.121094 628.898438 264.847656 632.421875 262.972656 C 636.242188 260.949219 647.109375 263.125 649.957031 266.496094 C 650.40625 267.097656 651.082031 267.546875 651.382812 267.546875 C 651.90625 267.546875 658.125 254.132812 658.125 253.007812 C 658.125 251.734375 646.882812 247.3125 642.011719 246.5625 C 636.167969 245.738281 635.195312 245.738281 630.398438 246.5625 Z M 630.398438 246.5625 " fill-opacity="1" fill-rule="nonzero"/><path fill="#ff1200" d="M 2.375 285.90625 L 2.375 323.753906 L 107.894531 323.601562 L 213.339844 323.378906 L 213.566406 285.683594 L 213.714844 248.0625 L 2.375 248.0625 Z M 2.375 285.90625 " fill-opacity="1" fill-rule="nonzero"/><path fill="#ff1200" d="M 281.164062 285.90625 L 281.164062 323.753906 L 301.398438 323.753906 L 301.398438 293.027344 L 328.378906 293.027344 L 328.527344 308.164062 L 328.753906 323.378906 L 339.09375 323.601562 L 349.363281 323.828125 L 349.363281 248.0625 L 328.378906 248.0625 L 328.378906 277.289062 L 301.398438 277.289062 L 301.398438 248.0625 L 281.164062 248.0625 Z M 281.164062 285.90625 " fill-opacity="1" fill-rule="nonzero"/><path fill="#ff1200" d="M 461.699219 248.210938 C 460.5 254.65625 450.160156 323.152344 450.382812 323.378906 C 450.609375 323.601562 454.882812 323.753906 459.976562 323.753906 L 469.121094 323.753906 L 469.570312 321.730469 C 470.019531 319.179688 474.214844 287.929688 474.964844 281.035156 C 475.492188 276.390625 475.566406 276.238281 476.164062 278.789062 C 477.886719 285.457031 488.304688 321.28125 488.90625 322.402344 C 489.429688 323.527344 490.628906 323.753906 495.949219 323.753906 C 501.796875 323.753906 502.320312 323.601562 502.996094 322.105469 C 503.667969 320.378906 514.3125 283.808594 515.585938 278.789062 C 516.109375 276.539062 516.335938 277.363281 517.160156 284.78125 C 517.683594 289.503906 519.03125 300.144531 520.15625 308.390625 L 522.179688 323.378906 L 531.699219 323.601562 C 541.140625 323.828125 541.214844 323.753906 541.214844 322.105469 C 541.214844 320.457031 531.097656 253.308594 530.347656 249.710938 C 529.972656 248.0625 529.75 248.0625 519.632812 248.0625 L 509.363281 248.0625 L 503.21875 269.269531 C 499.773438 280.886719 496.773438 291.527344 496.550781 292.953125 C 496.101562 295.125 495.5 293.550781 492.054688 281.710938 C 489.878906 274.140625 486.808594 263.5 485.15625 258.179688 L 482.308594 248.433594 L 472.042969 248.210938 C 466.421875 248.136719 461.777344 248.136719 461.699219 248.210938 Z M 461.699219 248.210938 " fill-opacity="1" fill-rule="nonzero"/><path fill="#ff1200" d="M 552.457031 285.90625 L 552.457031 323.753906 L 575.539062 323.601562 L 598.546875 323.378906 L 598.769531 314.984375 L 598.996094 306.515625 L 572.691406 306.515625 L 572.691406 293.777344 L 597.421875 293.777344 L 597.421875 277.289062 L 572.691406 277.289062 L 572.691406 264.546875 L 598.921875 264.546875 L 598.921875 248.0625 L 552.457031 248.0625 Z M 552.457031 285.90625 " fill-opacity="1" fill-rule="nonzero"/><path fill="#ff1200" d="M 240.171875 300.144531 C 233.199219 304.34375 231.851562 314.234375 237.546875 320.304688 C 248.039062 331.546875 265.652344 318.582031 258.457031 304.941406 C 255.007812 298.421875 246.691406 296.25 240.171875 300.144531 Z M 240.171875 300.144531 " fill-opacity="1" fill-rule="nonzero"/></svg>