<svg height="3000" version="1.1" width="4000" xmlns="http://www.w3.org/2000/svg" id="temp" viewBox="95.99142456054688 -0.0064713177271187305 588.0172119140625 441.012939453125" xmlns:xlink="http://www.w3.org/1999/xlink"><defs></defs><defs></defs><defs></defs><defs></defs><defs></defs><defs>
        <pattern id="tile01" width="20" height="20" patternUnits="userSpaceOnUse">
            <rect width="30" height="30" stroke="#000000" fill="#ffffff"></rect>
        </pattern>

        <pattern id="tile02" width="20" height="20" patternUnits="userSpaceOnUse">
            <rect width="30" height="30" stroke="#900" stroke-dasharray="4" stroke-width="3" fill="none"></rect>
        </pattern>

        <pattern id="tile03" width="25" height="25" patternUnits="userSpaceOnUse">
            <rect width="25" height="25" stroke="#828282" fill="#ffffff"></rect>
        </pattern>
    </defs><g style="display: block;"><g transform="matrix(0.2405,0,0,0.2405,250.2936,-74.2834)" style="display: block;"><g style="display: block;"><rect x="-641.5890368408203" y="308.8437748107911" width="2444.9781225097654" height="1833.7335918823242" rx="0" ry="0" fill="#ffffff" style="fill-opacity: 1;"></rect></g><g style="display: block;"><g style="display: block;"><g transform="matrix(1,0,0,1,0,0)" style="display: block;"><g style="display: block;"><g style="display: block; fill-opacity: 1; stroke-opacity: 1; stroke-width: 1;" fill="#ffffff" stroke="#ffffff"><polygon points="372.75,1067.65 -249.31,1067.65 -249.31,729.06 372.75,729.06 "></polygon><g style="display: block;"></g></g><g style="display: block; fill-opacity: 1; stroke-opacity: 1; stroke-width: 1;" fill="#ffffff" stroke="#ffffff"><polygon points="-264.55,1172.65 -577.75,1172.65 -577.75,630.45 -264.55,630.45 "></polygon><g style="display: block;"></g></g><g style="display: block; fill-opacity: 1; stroke-opacity: 1; stroke-width: 1;" fill="#ffffff" stroke="#ffffff"><polygon points="367.67,1172.65 196.91,1172.65 196.91,1082.89 367.67,1082.89 "></polygon><g style="display: block;"></g></g><g style="display: block; fill-opacity: 1; stroke-opacity: 1; stroke-width: 1;" fill="#ffffff" stroke="#ffffff"><polygon points="1278.37,657.69 1278.37,1635.77 382.91,1635.77 382.91,729.06 403.03,729.06 403.03,657.69 "></polygon><g style="display: block;"></g></g><g style="display: block; fill-opacity: 1; stroke-opacity: 1; stroke-width: 1;" fill="#ffffff" stroke="#ffffff"><polygon points="1739.55,1136.61 1278.37,1136.61 1278.37,657.69 1739.55,657.69 "></polygon><g style="display: block;"></g></g><g style="display: block; fill-opacity: 1; stroke-opacity: 1; stroke-width: 1;" fill="#ffffff" stroke="#ffffff"><polygon points="1520.22,1400.65 1288.53,1400.65 1288.53,1146.77 1520.22,1146.77 "></polygon><g style="display: block;"></g></g><g style="display: block; fill-opacity: 1; stroke-opacity: 1; stroke-width: 1;" fill="#ffffff" stroke="#ffffff"><polygon points="1520.22,1635.77 1288.53,1635.77 1288.53,1410.81 1520.22,1410.81 "></polygon><g style="display: block;"></g></g></g><g style="display: block;"></g><g style="display: block;"></g><g style="display: block; fill-opacity: 0; stroke-opacity: 1;" fill="rgba(0,0,0,0)" stroke="#000000"><g style="display: block;"><polygon points="372.55,1172.65 196.91,1172.65 196.91,1082.89 372.55,1082.89 "></polygon><g style="display: block;"><path fill="none" stroke="#000000" d="M372.55,1127.77 L196.91,1127.77 " style="pointer-events: none; stroke-width: 1; marker-end: url(&quot;#Marker314&quot;);"></path><defs><marker viewBox="0 0 12 12" markerWidth="12" markerHeight="12" orient="auto" refX="11" refY="6" id="Marker314" fill="#000000" stroke="#000000" style="pointer-events: none;"><polygon points="0.00,0.00 0.00,12.00 10.00,6.00 0.00,0.00 "></polygon></marker></defs></g><g style="display: block;"><line x1="372.54998779296875" x2="372.54998779296875" y1="1172.6500244140625" y2="1082.8900146484375"></line><line x1="347.4585614885603" x2="347.4585614885603" y1="1172.6500244140625" y2="1082.8900146484375"></line><line x1="322.3671351841518" x2="322.3671351841518" y1="1172.6500244140625" y2="1082.8900146484375"></line><line x1="297.2757088797433" x2="297.2757088797433" y1="1172.6500244140625" y2="1082.8900146484375"></line><line x1="272.1842825753348" x2="272.1842825753348" y1="1172.6500244140625" y2="1082.8900146484375"></line><line x1="247.09285627092635" x2="247.09285627092635" y1="1172.6500244140625" y2="1082.8900146484375"></line><line x1="222.00142996651786" x2="222.00142996651786" y1="1172.6500244140625" y2="1082.8900146484375"></line><line x1="196.91000366210938" x2="196.91000366210938" y1="1172.6500244140625" y2="1082.8900146484375"></line></g></g></g><g style="display: block; fill-opacity: 0; stroke-opacity: 1;" fill="rgba(0,0,0,0)" stroke="#000000"><g style="display: block;"><polygon points="800.55,1483.90 800.55,1382.23 900.35,1382.23 900.35,1483.90 "></polygon><g style="display: block;"><path fill="none" stroke="#000000" d="M850.45,1483.90 L850.45,1382.23 " style="pointer-events: none; stroke-width: 1; marker-end: url(&quot;#Marker315&quot;);"></path><defs><marker viewBox="0 0 12 12" markerWidth="12" markerHeight="12" orient="auto" refX="11" refY="6" id="Marker315" fill="#000000" stroke="#000000" style="pointer-events: none;"><polygon points="0.00,0.00 0.00,12.00 10.00,6.00 0.00,0.00 "></polygon></marker></defs></g><g style="display: block;"><line x1="800.5499877929688" x2="900.3499755859375" y1="1483.9000244140625" y2="1483.9000244140625"></line><line x1="800.5499877929688" x2="900.3499755859375" y1="1458.4825134277344" y2="1458.4825134277344"></line><line x1="800.5499877929688" x2="900.3499755859375" y1="1433.0650024414062" y2="1433.0650024414062"></line><line x1="800.5499877929688" x2="900.3499755859375" y1="1407.6474914550781" y2="1407.6474914550781"></line><line x1="800.5499877929688" x2="900.3499755859375" y1="1382.22998046875" y2="1382.22998046875"></line></g></g></g><g style="display: block; fill-opacity: 0; stroke-opacity: 1; stroke-width: 1;" fill="#ffffff" stroke="#000000"><polygon points="800.91,1405.72 800.91,1487.08 790.75,1487.08 790.75,1405.72 " style="stroke-dasharray: 0;"></polygon></g><g style="display: block; fill-opacity: 0; stroke-opacity: 1; stroke-width: 1;" fill="#ffffff" stroke="#000000"><polygon points="900.35,1407.65 900.35,1487.08 910.51,1487.08 910.51,1407.65 " style="stroke-dasharray: 0;"></polygon></g><g fill="#ffffff" stroke="#000000" transform="matrix(0,1,-1,0,1489.8394,1146.7688)" style="fill-opacity: 0; stroke-opacity: 1; stroke-width: 1; pointer-events: none;">
        <g>
            <polygon points="0.00,0.00 117.57,0.00 117.57,60.00 0.00,60.00 "></polygon>
        </g>
         
        
        
    <g style="display: block;"></g></g><g fill="#ffffff" stroke="#000000" transform="matrix(-1,0,0,-1,1357.0021,1400.6529)" data-automation-id="e0b62ca8-ba65-4d93-be10-58a501fe18cc" style="fill-opacity: 0; stroke-opacity: 1; stroke-width: 1; pointer-events: none;">
	   <g fill="none" stroke="none"> 
            <polygon points="0,0 41,0 41,71 0,71"></polygon>
		</g>
        <g>
            <rect x="0.502" y="0.5" width="39.989" height="17.98"></rect>
            <path d="M40.491,44.237S41.619,70.5,20.907,70.5C-.523,70.5.6,44.237.6,44.237L.5,18.48H40.491Z"></path>
            <rect x="17.318" y="7.975" width="6.357" height="3.03"></rect>
        </g>
        
    </g><g fill="#ffffff" stroke="#000000" transform="matrix(0,1,-1,0,1519.992,1494.6774)" style="fill-opacity: 0; stroke-opacity: 1; stroke-width: 1; pointer-events: none;">
	    <g> 
		    <polygon points="0,0 60,0 60,60 0,60"></polygon>
		</g>	
	    
         
        
        
	</g><g fill="#ffffff" stroke="#000000" transform="matrix(1,0,0,1,-342.9445,672.9546)" style="fill-opacity: 0; stroke-opacity: 1; stroke-width: 1; pointer-events: none;">
        <g fill="none" stroke="none"> 
		    <polygon points=" 0,0 60,0 60,60 0,60"></polygon>
		</g> 
        <g>
		    <circle cx="30.5" cy="30.5" r="30"></circle>
		</g>
	    <g fill="none">
            <path d="M8.5,10.5l22,30v-20l22,30"></path>
	    </g>
         
        
        
	</g><g fill="#ffffff" stroke="#000000" transform="matrix(0,1,-1,0,1489.8393,1155.1754)" data-automation-id="de187c3f-3a6e-49b8-9d9a-aff43c5d29e3" style="fill-opacity: 0; stroke-opacity: 1; stroke-width: 1; pointer-events: none;">
        <g fill="none" stroke="none">
            <polygon points="0,0 46,0 46,50 0,50"></polygon>
        </g>
        <g>
            <circle cx="23" cy="27" r="23"></circle>
        </g>
        <g>
            <circle cx="23" cy="27" r="3.5"></circle>
        </g>
        <g>
            <circle cx="23" cy="27" r="2"></circle>
        </g>
        <g>
            <polygon points="20 0 26 0 26 14 20 14 20 0"></polygon>
        </g>
        
        
    </g><g fill="#ffffff" stroke="#000000" transform="matrix(1,0,0,1,-426.6596,630.4462)" style="fill-opacity: 0; stroke-opacity: 1; stroke-width: 1; pointer-events: none;">
	    <g> 
		    <polygon points="0,0 60,0 60,60 0,60"></polygon>
		</g>	
	    
         
        
        
	</g><g fill="#ffffff" stroke="#000000" transform="matrix(-1,0,0,-1,1459.7881,1400.653)" style="fill-opacity: 0; stroke-opacity: 1; stroke-width: 1; pointer-events: none;">
					<g fill="none" stroke="none">
						<polygon points="0,0 32,0 32,19 0,19"></polygon>
					</g>
					<g>
						<rect x="3.7" y="0.5" width="11.2" height="6.1"></rect>
						<rect x="17.6" y="0.5" width="11.2" height="6.1"></rect>
						<rect x="28.7" y="0.5" width="3.4" height="6.1"></rect>
						<rect x="0.5" y="0.5" width="3.2" height="6.1"></rect>
						<path d="M14.9,8.5c0,1.5-0.4,3.3-1.6,5
						c-0.4,0.6-1,1.1-1.1,1.7c-0.2,1.1,0.3,2.8,2.5,3.2c0.5,0.1,1.3,0.1,1.6,0.1h-0.1c0.3,0,1.1,0,1.6-0.1c2.2-0.4,2.7-2.1,2.5-3.2
						c-0.1-0.6-0.7-1.1-1.1-1.7c-1.2-1.7-1.6-3.5-1.6-5"></path>
						<path d="M12.2,15.3c0.1,0.2,1.6,1.9,4.2,1.9 c2.4-0.1,3.7-1.7,3.9-1.9"></path>
						<path d="M14.9,0.5h2.7v8c-0.9,0-1.8,0-2.7,0l0,0 C14.9,5.9,14.9,3.2,14.9,0.5z"></path>
					</g>
					<g>
						<path d="M3.7,3.6C5,3.1,5.2,3,5.2,3 c0,1.1,0,0,0,1.1C5.2,4.1,5.1,4.1,3.7,3.6"></path>
						<path d="M28.7,3.6 C27.4,3.1,27.2,3,27.2,3c0,1.1,0,0,0,1.1C27.2,4.1,27.3,4.1,28.7,3.6"></path>
					</g>
					
				</g><g style="display: block; fill-opacity: 1; stroke-width: 1;" fill="#000000" stroke="#000000"><polygon points="1520.22,1146.77 1489.84,1146.77 1490.09,1410.81 1520.47,1410.81 "></polygon></g><g style="display: block; fill-opacity: 1; stroke-width: 1;" fill="#000000" stroke="#000000"><polygon points="621.35,1176.88 647.38,1176.88 647.38,1199.65 621.35,1199.65 "></polygon></g><g style="display: block; fill-opacity: 1; stroke-width: 1;" fill="#000000" stroke="#000000"><polygon points="875.62,1176.88 901.65,1176.88 901.65,1199.65 875.62,1199.65 "></polygon></g><g style="display: block; fill-opacity: 1; stroke-width: 1;" fill="#000000" stroke="#000000"><polygon points="1128.30,1176.88 1154.33,1176.88 1154.33,1199.65 1128.30,1199.65 "></polygon></g><g data-automation-id="3f3ad320-9261-43b2-8b1e-2d7dc963332a" style="display: block; fill-opacity: 1; stroke-opacity: 1; stroke-width: 1; stroke-linejoin: round;" fill="#000000" stroke="#000000"><polygon points="1288.53,1636.89 1288.53,1146.77 1278.37,1136.61 1278.37,1636.89 "></polygon><g style="display: block;"></g><g fill="#ffffff" stroke="#000000" data-automation-id="8a2d3e06-9346-468f-9667-ba4e3f4575ac" style="display: block; fill-opacity: 1; stroke-width: 1.2; stroke-opacity: 1;"><polygon points="1288.53,1301.65 1288.53,1210.65 1278.37,1210.65 1278.37,1301.65 "></polygon><g style="display: block;"><polygon points="1288.53,1301.65 1288.53,1210.65 1278.37,1210.65 1278.37,1301.65 "></polygon></g><g fill="none" style="display: block;"><g fill="none" stroke="none" style="display: block;"><polygon points="1288.53,1301.65 1288.53,1210.65 1278.37,1210.65 1278.37,1301.65 "></polygon></g><path d="M1288.53,1301.65 q91.00,0.00 91.00,-91.00 l-91.00,0.00Z"></path></g></g><g fill="#ffffff" stroke="#000000" data-automation-id="90c871bb-33d3-4dd9-ae4f-2535e9926d0a" style="display: block; fill-opacity: 1; stroke-width: 1.2; stroke-opacity: 1;"><polygon points="1288.53,1511.65 1288.53,1420.65 1278.37,1420.65 1278.37,1511.65 "></polygon><g style="display: block;"><polygon points="1288.53,1511.65 1288.53,1420.65 1278.37,1420.65 1278.37,1511.65 "></polygon></g><g fill="none" style="display: block;"><g fill="none" stroke="none" style="display: block;"><polygon points="1288.53,1511.65 1288.53,1420.65 1278.37,1420.65 1278.37,1511.65 "></polygon></g><path d="M1288.53,1511.65 q91.00,0.00 91.00,-91.00 l-91.00,0.00Z"></path></g></g></g><g data-automation-id="968dcbcf-61bd-453e-bb49-37066d01258d" style="display: block; fill-opacity: 1; stroke-opacity: 1; stroke-width: 1; stroke-linejoin: round;" fill="#000000" stroke="#000000"><polygon points="1024.91,1315.81 1024.91,1199.65 1014.75,1209.81 1014.75,1305.65 "></polygon><g style="display: block;"></g><g fill="#ffffff" stroke="#000000" data-automation-id="5cfdd856-b0a2-4ffb-a4ce-a6686e7989ba" style="display: block; fill-opacity: 1; stroke-width: 1.2; stroke-opacity: 1;"><polygon points="1024.91,1298.65 1024.91,1217.65 1014.75,1217.65 1014.75,1298.65 "></polygon><g style="display: block;"><polygon points="1024.91,1298.65 1024.91,1217.65 1014.75,1217.65 1014.75,1298.65 "></polygon></g><g fill="none" style="display: block;"><g fill="none" stroke="none" style="display: block;"><polygon points="1024.91,1298.65 1024.91,1217.65 1014.75,1217.65 1014.75,1298.65 "></polygon></g><path d="M1024.91,1217.65 q81.00,0.00 81.00,81.00 l-81.00,0.00Z"></path></g></g></g><g data-automation-id="f699a41f-b058-43b9-a228-531f69d77e66" style="display: block; fill-opacity: 1; stroke-opacity: 1; stroke-width: 1; stroke-linejoin: round;" fill="#000000" stroke="#000000"><polygon points="-577.75,1172.65 -264.55,1172.65 -249.31,1187.89 -592.99,1187.89 "></polygon><g style="display: block;"></g></g><g data-automation-id="3677fb18-d117-4f86-93e7-33c04c59343a" style="display: block; fill-opacity: 1; stroke-opacity: 1; stroke-width: 1; stroke-linejoin: round;" fill="#000000" stroke="#000000"><polygon points="196.91,1172.65 382.91,1172.65 367.67,1187.89 181.67,1187.89 "></polygon><g style="display: block;"></g></g><g data-automation-id="c01a8714-445e-4c93-863e-5f0fdfa437d6" style="display: block; fill-opacity: 1; stroke-opacity: 1; stroke-width: 1; stroke-linejoin: round;" fill="#000000" stroke="#000000"><polygon points="196.91,1172.65 196.91,1067.65 181.67,1082.89 181.67,1187.89 "></polygon><g style="display: block;"></g><g fill="#ffffff" stroke="#000000" style="display: block; fill-opacity: 1; stroke-width: 1.2; stroke-opacity: 1;"><polygon points="196.91,1165.01 196.91,1090.69 181.67,1090.69 181.67,1165.01 "></polygon><g stroke="#ffffff" style="display: block;"><polygon points="196.91,1165.01 196.91,1090.69 181.67,1090.69 181.67,1165.01 "></polygon></g></g></g><g data-automation-id="0bb50d08-e547-4ed8-847a-6844bacc3bd5" style="display: block; fill-opacity: 1; stroke-opacity: 1; stroke-width: 1; stroke-linejoin: round;" fill="#000000" stroke="#000000"><polygon points="387.79,642.45 1754.79,642.45 1739.55,657.69 403.03,657.69 "></polygon><g style="display: block;"></g><g fill="#ffffff" stroke="#000000" style="display: block; fill-opacity: 1; stroke-width: 1; stroke-opacity: 1;"><polygon points="1579.81,642.45 1671.77,642.45 1671.77,657.69 1579.81,657.69 "></polygon><g style="display: block;"><polygon points="1579.81,642.45 1671.77,642.45 1671.77,657.69 1579.81,657.69 "></polygon></g><g style="display: block;"><line x1="1587.31005859375" x2="1664.27001953125" y1="650.0700073242188" y2="650.0700073242188"></line><line x1="1587.31005859375" x2="1587.31005859375" y1="642.4500122070312" y2="657.6900024414062"></line><line x1="1664.27001953125" x2="1664.27001953125" y1="642.4500122070312" y2="657.6900024414062"></line></g></g><g fill="#ffffff" stroke="#000000" style="display: block; fill-opacity: 1; stroke-width: 1; stroke-opacity: 1;"><polygon points="474.14,642.45 575.56,642.45 575.56,657.69 474.14,657.69 "></polygon><g style="display: block;"><polygon points="474.14,642.45 575.56,642.45 575.56,657.69 474.14,657.69 "></polygon></g><g style="display: block;"><line x1="481.6400146484375" x2="568.0599975585938" y1="650.0700073242188" y2="650.0700073242188"></line><line x1="481.6400146484375" x2="481.6400146484375" y1="642.4500122070312" y2="657.6900024414062"></line><line x1="568.0599975585938" x2="568.0599975585938" y1="642.4500122070312" y2="657.6900024414062"></line></g></g></g><g data-automation-id="4ebad6e2-d568-49c2-b562-daa00ecdba98" style="display: block; fill-opacity: 1; stroke-opacity: 1; stroke-width: 1; stroke-linejoin: round;" fill="#000000" stroke="#000000"><polygon points="-249.31,713.82 387.79,713.82 403.03,729.06 -264.55,729.06 "></polygon><g style="display: block;"></g></g><g data-automation-id="1550c94b-525e-4a02-b2ea-045826031a43" style="display: block; fill-opacity: 1; stroke-opacity: 1; stroke-width: 1; stroke-linejoin: round;" fill="#000000" stroke="#000000"><polygon points="-592.99,615.21 -249.31,615.21 -264.55,630.45 -577.75,630.45 "></polygon><g style="display: block;"></g></g><g data-automation-id="26f5bcda-541b-46e3-aa4e-6a5a1bdd6124" style="display: block; fill-opacity: 1; stroke-opacity: 1; stroke-width: 1; stroke-linejoin: round;" fill="#000000" stroke="#000000"><polygon points="403.03,729.06 403.03,657.69 387.79,642.45 387.79,713.82 "></polygon><g style="display: block;"></g></g><g data-automation-id="18a83b4b-dcea-46f3-8c8c-75739e6d25d0" style="display: block; fill-opacity: 1; stroke-opacity: 1; stroke-width: 1; stroke-linejoin: round;" fill="#000000" stroke="#000000"><polygon points="1754.79,1151.85 1754.79,642.45 1739.55,657.69 1739.55,1136.61 "></polygon><g style="display: block;"></g><g fill="#ffffff" stroke="#000000" style="display: block; fill-opacity: 1; stroke-width: 1; stroke-opacity: 1;"><polygon points="1754.79,1088.64 1754.79,996.68 1739.55,996.68 1739.55,1088.64 "></polygon><g style="display: block;"><polygon points="1754.79,1088.64 1754.79,996.68 1739.55,996.68 1739.55,1088.64 "></polygon></g><g style="display: block;"><line x1="1747.1700439453125" x2="1747.1700439453125" y1="1081.1400146484375" y2="1004.1799926757812"></line><line x1="1754.7900390625" x2="1739.550048828125" y1="1081.1400146484375" y2="1081.1400146484375"></line><line x1="1754.7900390625" x2="1739.550048828125" y1="1004.1799926757812" y2="1004.1799926757812"></line></g></g><g fill="#ffffff" stroke="#000000" style="display: block; fill-opacity: 1; stroke-width: 1; stroke-opacity: 1;"><polygon points="1754.79,828.34 1754.79,736.37 1739.55,736.37 1739.55,828.34 "></polygon><g style="display: block;"><polygon points="1754.79,828.34 1754.79,736.37 1739.55,736.37 1739.55,828.34 "></polygon></g><g style="display: block;"><line x1="1747.1700439453125" x2="1747.1700439453125" y1="820.8400268554688" y2="743.8699951171875"></line><line x1="1754.7900390625" x2="1739.550048828125" y1="820.8400268554688" y2="820.8400268554688"></line><line x1="1754.7900390625" x2="1739.550048828125" y1="743.8699951171875" y2="743.8699951171875"></line></g></g></g><g data-automation-id="6ee875c7-0629-47f7-a55e-1bea6bf87a87" style="display: block; fill-opacity: 1; stroke-opacity: 1; stroke-width: 1; stroke-linejoin: round;" fill="#000000" stroke="#000000"><polygon points="900.35,1305.65 1014.75,1305.65 1024.91,1315.81 910.51,1315.81 "></polygon><g style="display: block;"></g></g><g style="display: block; fill-opacity: 1; stroke-opacity: 1; stroke-width: 1; stroke-linejoin: round;" fill="#000000" stroke="#000000"><polygon points="1014.75,1209.81 800.91,1209.81 790.75,1199.65 1024.91,1199.65 "></polygon><g style="display: block;"></g></g><g style="display: block; fill-opacity: 1; stroke-opacity: 1; stroke-width: 1; stroke-linejoin: round;" fill="#000000" stroke="#000000"><polygon points="1520.22,1635.77 382.91,1635.77 367.67,1651.01 1535.46,1651.01 "></polygon><g style="display: block;"></g></g><g data-automation-id="5c37f09a-7414-4e2e-b070-19d049b83272" style="display: block; fill-opacity: 1; stroke-opacity: 1; stroke-width: 1; stroke-linejoin: round;" fill="#000000" stroke="#000000"><polygon points="-577.75,1172.65 -577.75,630.45 -592.99,615.21 -592.99,1187.89 "></polygon><g style="display: block;"></g><g fill="#ffffff" stroke="#000000" style="display: block; fill-opacity: 1; stroke-width: 1; stroke-opacity: 1;"><polygon points="-577.75,989.23 -577.75,899.71 -592.99,899.71 -592.99,989.23 "></polygon><g style="display: block;"><polygon points="-577.75,989.23 -577.75,899.71 -592.99,899.71 -592.99,989.23 "></polygon></g><g style="display: block;"><line x1="-585.3699951171875" x2="-585.3699951171875" y1="981.72998046875" y2="907.2100219726562"></line><line x1="-577.75" x2="-592.989990234375" y1="981.72998046875" y2="981.72998046875"></line><line x1="-577.75" x2="-592.989990234375" y1="907.2100219726562" y2="907.2100219726562"></line></g></g></g><g style="display: block; fill-opacity: 1; stroke-opacity: 1; stroke-width: 1; stroke-linejoin: round;" fill="#000000" stroke="#000000"><polygon points="1520.22,1136.61 1739.55,1136.61 1754.79,1151.85 1535.46,1151.85 "></polygon><g style="display: block;"></g></g><g data-automation-id="e68959f4-4d7c-49dd-a7b7-1dba27392b95" style="display: block; fill-opacity: 1; stroke-opacity: 1; stroke-width: 1; stroke-linejoin: round;" fill="#000000" stroke="#000000"><polygon points="-264.55,1067.65 196.91,1067.65 181.67,1082.89 -249.31,1082.89 "></polygon><g style="display: block;"></g></g><g data-automation-id="e68959f4-4d7c-49dd-a7b7-1dba27392b95" style="display: block; fill-opacity: 1; stroke-opacity: 1; stroke-width: 1; stroke-linejoin: round;" fill="#000000" stroke="#000000"><polygon points="196.91,1067.65 382.91,1067.65 367.67,1082.89 196.91,1082.89 "></polygon><g style="display: block;"></g></g><g data-automation-id="fd5746e3-3d79-4540-a35e-6aef1234109a" style="display: block; fill-opacity: 1; stroke-opacity: 1; stroke-width: 1; stroke-linejoin: round;" fill="#000000" stroke="#000000"><polygon points="382.91,1172.65 382.91,1067.65 367.67,1082.89 367.67,1172.65 "></polygon><g style="display: block;"></g><g fill="#ffffff" stroke="#000000" style="display: block; fill-opacity: 1; stroke-width: 1.2; stroke-opacity: 1;"><polygon points="382.91,1160.66 382.91,1094.54 367.67,1094.54 367.67,1160.66 "></polygon><g style="display: block;"><polygon points="382.91,1160.66 382.91,1094.54 367.67,1094.54 367.67,1160.66 "></polygon></g><g fill="none" style="display: block;"><g fill="none" stroke="none" style="display: block;"><polygon points="382.91,1160.66 382.91,1094.54 367.67,1094.54 367.67,1160.66 "></polygon></g><path d="M382.91,1094.54 q66.12,0.00 66.12,66.12 l-66.12,0.00Z"></path></g></g></g><g data-automation-id="fd5746e3-3d79-4540-a35e-6aef1234109a" style="display: block; fill-opacity: 1; stroke-opacity: 1; stroke-width: 1; stroke-linejoin: round;" fill="#000000" stroke="#000000"><polygon points="382.91,1635.77 382.91,1172.65 367.67,1187.89 367.67,1651.01 "></polygon><g style="display: block;"></g></g><g data-automation-id="f7dfeb75-662f-4f2e-9ea2-5eed1a39b272" style="display: block; fill-opacity: 1; stroke-opacity: 1; stroke-width: 1; stroke-linejoin: round;" fill="#000000" stroke="#000000"><polygon points="1535.46,1651.01 1535.46,1151.85 1520.22,1136.61 1520.22,1635.77 "></polygon><g style="display: block;"></g></g><g data-automation-id="b4689e7d-abf3-482d-b423-36ff14de8bcc" style="display: block; fill-opacity: 1; stroke-opacity: 1; stroke-width: 1; stroke-linejoin: round;" fill="#000000" stroke="#000000"><polygon points="1278.37,1136.61 1520.22,1136.61 1520.22,1146.77 1288.53,1146.77 "></polygon><g style="display: block;"></g></g><g style="display: block; fill-opacity: 1; stroke-opacity: 1; stroke-width: 1; stroke-linejoin: round;" fill="#000000" stroke="#000000"><polygon points="800.91,1405.72 800.91,1209.81 790.75,1199.65 790.75,1405.72 "></polygon><g style="display: block;"></g></g><g style="display: block; fill-opacity: 1; stroke-opacity: 1; stroke-width: 1; stroke-linejoin: round;" fill="#000000" stroke="#000000"><polygon points="910.51,1407.65 910.51,1315.81 900.35,1305.65 900.35,1407.65 "></polygon><g style="display: block;"></g></g><g data-automation-id="60410fef-f0bc-4b1e-8aac-427ba2194d30" style="display: block; fill-opacity: 1; stroke-opacity: 1; stroke-width: 1; stroke-linejoin: round;" fill="#000000" stroke="#000000"><polygon points="1278.37,1400.65 1520.22,1400.65 1520.22,1410.81 1278.37,1410.81 "></polygon><g style="display: block;"></g></g><g style="display: block; fill-opacity: 1; stroke-opacity: 1; stroke-width: 1; stroke-linejoin: round;" fill="#000000" stroke="#000000"><polygon points="382.91,1082.89 382.91,713.82 372.75,713.82 372.75,1082.89 "></polygon><g style="display: block;"></g><g fill="#ffffff" stroke="#000000" style="display: block; fill-opacity: 1; stroke-width: 1.2; stroke-opacity: 1;"><polygon points="382.91,844.65 382.91,764.65 372.75,764.65 372.75,844.65 "></polygon><g style="display: block;"><polygon points="382.91,844.65 382.91,764.65 372.75,764.65 372.75,844.65 "></polygon></g><g fill="none" style="display: block;"><g fill="none" stroke="none" style="display: block;"><polygon points="382.91,844.65 382.91,764.65 372.75,764.65 372.75,844.65 "></polygon></g><path d="M372.75,844.65 q-80.00,0.00 -80.00,-80.00 l80.00,0.00Z"></path></g></g></g><g data-automation-id="421a17e4-0da3-41d3-8823-500defb46ec9" style="display: block; fill-opacity: 1; stroke-opacity: 1; stroke-width: 1; stroke-linejoin: round;" fill="#000000" stroke="#000000"><polygon points="-249.31,713.82 -249.31,615.21 -264.55,630.45 -264.55,729.06 "></polygon><g style="display: block;"></g></g><g data-automation-id="421a17e4-0da3-41d3-8823-500defb46ec9" style="display: block; fill-opacity: 1; stroke-opacity: 1; stroke-width: 1; stroke-linejoin: round;" fill="#000000" stroke="#000000"><polygon points="-249.31,1187.89 -249.31,1082.89 -264.55,1067.65 -264.55,1172.65 "></polygon><g style="display: block;"></g></g><g data-automation-id="421a17e4-0da3-41d3-8823-500defb46ec9" style="display: block; fill-opacity: 1; stroke-opacity: 1; stroke-width: 1; stroke-linejoin: round;" fill="#000000" stroke="#000000"><polygon points="-249.31,1067.65 -249.31,729.06 -264.55,729.06 -264.55,1067.65 "></polygon><g style="display: block;"></g><g fill="#ffffff" stroke="#000000" style="display: block; fill-opacity: 1; stroke-width: 1.2; stroke-opacity: 1;"><polygon points="-249.31,822.65 -249.31,742.65 -264.55,742.65 -264.55,822.65 "></polygon><g style="display: block;"><polygon points="-249.31,822.65 -249.31,742.65 -264.55,742.65 -264.55,822.65 "></polygon></g><g fill="none" style="display: block;"><g fill="none" stroke="none" style="display: block;"><polygon points="-249.31,822.65 -249.31,742.65 -264.55,742.65 -264.55,822.65 "></polygon></g><path d="M-249.31,822.65 q80.00,0.00 80.00,-80.00 l-80.00,0.00Z"></path></g></g></g><g transform="matrix(1,0,0,1,285.8594,1114.9455)" style="display: block;"><text x="0" y="0em" fill="#000000" stroke="none" style="font-family: sans-serif; font-size: 23px; font-style: normal; fill-opacity: 1; cursor: default; text-anchor: middle; font-weight: normal;">STAIRS TO </text></g><g transform="matrix(1,0,0,1,285.0838,1157.1291)" style="display: block;"><text x="0" y="0em" fill="#000000" stroke="none" style="font-family: sans-serif; font-size: 23px; font-style: normal; fill-opacity: 1; cursor: default; text-anchor: middle; font-weight: normal;">GARAGE</text></g><g transform="matrix(1,0,0,1,285.8594,1114.9455)" style="display: block;"><text x="0" y="0em" fill="#000000" stroke="none" style="font-family: sans-serif; font-size: 23px; font-style: normal; fill-opacity: 1; cursor: default; text-anchor: middle; font-weight: normal;">STAIRS TO </text></g><g transform="matrix(1,0,0,1,285.0838,1157.1291)" style="display: block;"><text x="0" y="0em" fill="#000000" stroke="none" style="font-family: sans-serif; font-size: 23px; font-style: normal; fill-opacity: 1; cursor: default; text-anchor: middle; font-weight: normal;">GARAGE</text></g><g transform="matrix(1,0,0,1,1288.5312,1410.813)" style="display: block;"><g style="display: block;" transform="matrix(1,0,0,1,0,0)"><g fill="#000000" stroke="none" style="display: block; fill-opacity: 1; pointer-events: visible;" transform="matrix(1,0,0,1,115.8468,0)"><polygon points="-5,5,0,0,5,5"></polygon></g><g fill="#000000" stroke="none" style="display: block; fill-opacity: 1; pointer-events: visible;" transform="matrix(1,0,0,1,231.6937,112.4768)"><polygon points="-5,-5,0,0,-5,5"></polygon></g><g fill="#000000" stroke="none" style="display: block; fill-opacity: 1; pointer-events: visible;" transform="matrix(1,0,0,1,115.8468,224.9536)"><polygon points="-5,-5,0,0,5,-5"></polygon></g><g fill="#000000" stroke="none" style="display: block; fill-opacity: 1; pointer-events: visible;" transform="matrix(1,0,0,1,0,112.4768)"><polygon points="5,5,0,0,5,-5"></polygon></g></g><g style="display: block;" transform="matrix(1,0,0,1,95.0207,123.3754)"><g style="display: block;"><text x="0" y="0em" fill="#000000" stroke="none" style="font-family: sans-serif; font-size: 23px; font-style: normal; fill-opacity: 1; cursor: default; text-anchor: middle; font-weight: normal;">UTILITY</text></g><g style="display: block;" transform="matrix(1,0,0,1,0,30.6122)"><text x="0" y="0em" fill="#000000" stroke="none" style="font-family: sans-serif; font-size: 23px; font-style: normal; fill-opacity: 1; cursor: default; text-anchor: middle; font-weight: normal;">7'7" x 7'5"</text></g></g></g><g transform="matrix(1,0,0,1,1288.5312,1147.7688)" style="display: block;"><g style="display: block;" transform="matrix(1,0,0,1,0,0)"><g fill="#000000" stroke="none" style="display: block; fill-opacity: 1; pointer-events: visible;" transform="matrix(1,0,0,1,100.7794,0)"><polygon points="-5,5,0,0,5,5"></polygon></g><g fill="#000000" stroke="none" style="display: block; fill-opacity: 1; pointer-events: visible;" transform="matrix(1,0,0,1,200.5588,125.9421)"><polygon points="-5,-5,0,0,-5,5"></polygon></g><g fill="#000000" stroke="none" style="display: block; fill-opacity: 1; pointer-events: visible;" transform="matrix(1,0,0,1,100.7794,252.8842)"><polygon points="-5,-5,0,0,5,-5"></polygon></g><g fill="#000000" stroke="none" style="display: block; fill-opacity: 1; pointer-events: visible;" transform="matrix(1,0,0,1,0,125.9421)"><polygon points="5,5,0,0,5,-5"></polygon></g></g><g style="display: block;" transform="matrix(1,0,0,1,70.73,94.0855)"><g style="display: block;"><text x="0" y="0em" fill="#000000" stroke="none" style="font-family: sans-serif; font-size: 23px; font-style: normal; fill-opacity: 1; cursor: default; text-anchor: middle; font-weight: normal;">BATH</text></g><g style="display: block;" transform="matrix(1,0,0,1,0,30.6122)"><text x="0" y="0em" fill="#000000" stroke="none" style="font-family: sans-serif; font-size: 23px; font-style: normal; fill-opacity: 1; cursor: default; text-anchor: middle; font-weight: normal;">6'7" x 8'4"</text></g></g></g><g transform="matrix(1,0,0,1,1278.3712,657.6923)" style="display: block;"><g style="display: block;" transform="matrix(1,0,0,1,0,0)"><g fill="#000000" stroke="none" style="display: block; fill-opacity: 1; pointer-events: visible;" transform="matrix(1,0,0,1,230.5874,0)"><polygon points="-5,5,0,0,5,5"></polygon></g><g fill="#000000" stroke="none" style="display: block; fill-opacity: 1; pointer-events: visible;" transform="matrix(1,0,0,1,460.1748,239.4583)"><polygon points="-5,-5,0,0,-5,5"></polygon></g><g fill="#000000" stroke="none" style="display: block; fill-opacity: 1; pointer-events: visible;" transform="matrix(1,0,0,1,230.5874,478.9165)"><polygon points="-5,-5,0,0,5,-5"></polygon></g><g fill="#000000" stroke="none" style="display: block; fill-opacity: 1; pointer-events: visible;" transform="matrix(1,0,0,1,0,239.4583)"><polygon points="5,5,0,0,5,-5"></polygon></g></g><g style="display: block;" transform="matrix(1,0,0,1,230.5874,209.5665)"><g style="display: block;"><text x="0" y="0em" fill="#000000" stroke="none" style="font-family: sans-serif; font-size: 23px; font-style: normal; fill-opacity: 1; cursor: default; text-anchor: middle; font-weight: normal;">EXERCISE ROOM</text></g><g style="display: block;" transform="matrix(1,0,0,1,0,30.6122)"><text x="0" y="0em" fill="#000000" stroke="none" style="font-family: sans-serif; font-size: 23px; font-style: normal; fill-opacity: 1; cursor: default; text-anchor: middle; font-weight: normal;">15'1" x 15'9"</text></g></g></g><g transform="matrix(1,0,0,1,383.9084,658.6923)" style="display: block;"><g style="display: block;" transform="matrix(1,0,0,1,0,0)"><g fill="#000000" stroke="none" style="display: block; fill-opacity: 1; pointer-events: visible;" transform="matrix(1,0,0,1,794,0)"><polygon points="-5,5,0,0,5,5"></polygon></g><g fill="#000000" stroke="none" style="display: block; fill-opacity: 1; pointer-events: visible;" transform="matrix(1,0,0,1,894.4627,522)"><polygon points="-5,-5,0,0,-5,5"></polygon></g><g fill="#000000" stroke="none" style="display: block; fill-opacity: 1; pointer-events: visible;" transform="matrix(1,0,0,1,794,977.0743)"><polygon points="-5,-5,0,0,5,-5"></polygon></g><g fill="#000000" stroke="none" style="display: block; fill-opacity: 1; pointer-events: visible;" transform="matrix(1,0,0,1,0,522)"><polygon points="5,5,0,0,5,-5"></polygon></g></g><g style="display: block;" transform="matrix(1,0,0,1,510.2384,285.9965)"><g style="display: block;"><text x="0" y="0em" fill="#000000" stroke="none" style="font-family: sans-serif; font-size: 23px; font-style: normal; fill-opacity: 1; cursor: default; text-anchor: middle; font-weight: normal;">RECREATION ROOM</text></g><g style="display: block;" transform="matrix(1,0,0,1,0,30.6122)"><text x="0" y="0em" fill="#000000" stroke="none" style="font-family: sans-serif; font-size: 23px; font-style: normal; fill-opacity: 1; cursor: default; text-anchor: middle; font-weight: normal;">29'4" x 32'1"</text></g></g></g><g transform="matrix(1,0,0,1,196.9084,1082.8929)" style="display: block;"><g style="display: block;" transform="matrix(1,0,0,1,88.2484,41.2374)"></g></g><g transform="matrix(1,0,0,1,-577.75,630.45)" style="display: block;"><g style="display: block;" transform="matrix(1,0,0,1,0,0)"><g fill="#000000" stroke="none" style="display: block; fill-opacity: 1; pointer-events: visible;" transform="matrix(1,0,0,1,156.6,0)"><polygon points="-5,5,0,0,5,5"></polygon></g><g fill="#000000" stroke="none" style="display: block; fill-opacity: 1; pointer-events: visible;" transform="matrix(1,0,0,1,313.2,271.1)"><polygon points="-5,-5,0,0,-5,5"></polygon></g><g fill="#000000" stroke="none" style="display: block; fill-opacity: 1; pointer-events: visible;" transform="matrix(1,0,0,1,156.6,542.2)"><polygon points="-5,-5,0,0,5,-5"></polygon></g><g fill="#000000" stroke="none" style="display: block; fill-opacity: 1; pointer-events: visible;" transform="matrix(1,0,0,1,0,271.1)"><polygon points="5,5,0,0,5,-5"></polygon></g></g><g style="display: block;" transform="matrix(1,0,0,1,156.0696,276.3215)"><g style="display: block;"><text x="0" y="0em" fill="#000000" stroke="none" style="font-family: sans-serif; font-size: 23px; font-style: normal; fill-opacity: 1; cursor: default; text-anchor: middle; font-weight: normal;">UTILITY</text></g><g style="display: block;" transform="matrix(1,0,0,1,0,30.6122)"><text x="0" y="0em" fill="#000000" stroke="none" style="font-family: sans-serif; font-size: 23px; font-style: normal; fill-opacity: 1; cursor: default; text-anchor: middle; font-weight: normal;">10'3" x 17'9"</text></g></g></g><g transform="matrix(1,0,0,1,-249.31,729.06)" style="display: block;"><g style="display: block;" transform="matrix(1,0,0,1,0,0)"><g fill="#000000" stroke="none" style="display: block; fill-opacity: 1; pointer-events: visible;" transform="matrix(1,0,0,1,311.03,0)"><polygon points="-5,5,0,0,5,5"></polygon></g><g fill="#000000" stroke="none" style="display: block; fill-opacity: 1; pointer-events: visible;" transform="matrix(1,0,0,1,622.06,169.295)"><polygon points="-5,-5,0,0,-5,5"></polygon></g><g fill="#000000" stroke="none" style="display: block; fill-opacity: 1; pointer-events: visible;" transform="matrix(1,0,0,1,311.03,338.59)"><polygon points="-5,-5,0,0,5,-5"></polygon></g><g fill="#000000" stroke="none" style="display: block; fill-opacity: 1; pointer-events: visible;" transform="matrix(1,0,0,1,0,169.295)"><polygon points="5,5,0,0,5,-5"></polygon></g></g><g style="display: block;" transform="matrix(1,0,0,1,311.03,169.295)"><g style="display: block;"><text x="0" y="0em" fill="#000000" stroke="none" style="font-family: sans-serif; font-size: 23px; font-style: normal; fill-opacity: 1; cursor: default; text-anchor: middle; font-weight: normal;">BONUS ROOM</text></g><g style="display: block;" transform="matrix(1,0,0,1,0,30.6122)"><text x="0" y="0em" fill="#000000" stroke="none" style="font-family: sans-serif; font-size: 23px; font-style: normal; fill-opacity: 1; cursor: default; text-anchor: middle; font-weight: normal;">20'5" x 11'1"</text></g></g></g><g fill="#ffffff" stroke="#000000" transform="matrix(-1,0,0,-1,1386.407,1400.6529)" style="fill-opacity: 0; stroke-opacity: 1; stroke-width: 1; pointer-events: none;">
				    <g>
					<polygon points="0,0 2.5,0 2.5,60 0,60"></polygon>
				    </g>
					<g stroke-linejoin="round">
						    <rect width="2.5" height="60"></rect>
					</g>
				    
				</g><g fill="#ffffff" stroke="#000000" transform="matrix(-0.7071,-0.7071,0.7071,-0.7071,1386.407,1340.5497)" style="fill-opacity: 0; stroke-opacity: 1; stroke-width: 1; pointer-events: none;">
				    <g>
					<polygon points="0,0 2.5,0 2.5,60 0,60"></polygon>
				    </g>
					<g stroke-linejoin="round">
						    <rect width="2.5" height="60"></rect>
					</g>
				    
				</g><g fill="#ffffff" stroke="#000000" transform="matrix(0,-1,1,0,1428.2084,1298.1497)" style="fill-opacity: 0; stroke-opacity: 1; stroke-width: 1; pointer-events: none;">
				    <g>
					<polygon points="0,0 2.5,0 2.5,60 0,60"></polygon>
				    </g>
					<g stroke-linejoin="round">
						    <rect width="2.5" height="60"></rect>
					</g>
				    
				</g><g transform="matrix(1,0,0,1,285.8594,1114.9455)" style="display: block;"><text x="0" y="0em" fill="#000000" stroke="none" style="font-family: sans-serif; font-size: 23px; font-style: normal; fill-opacity: 1; cursor: default; text-anchor: middle; font-weight: normal;">STAIRS TO </text></g><g transform="matrix(1,0,0,1,285.0838,1157.1291)" style="display: block;"><text x="0" y="0em" fill="#000000" stroke="none" style="font-family: sans-serif; font-size: 23px; font-style: normal; fill-opacity: 1; cursor: default; text-anchor: middle; font-weight: normal;">GARAGE</text></g></g></g></g></g><g style="display: block;"><g transform="matrix(1,0,0,1,390,430.2017)" style="display: block;"><text x="0" y="0em" fill="#000000" stroke="none" style="font-family: Verdana; font-size: 3.48676px; font-style: normal; fill-opacity: 1; cursor: default; text-anchor: middle; font-weight: normal;">FLOOR PLAN CREATED BY CUBICASA APP. MEASUREMENTS DEEMED HIGHLY RELIABLE BUT NOT GUARANTEED.</text></g><g style="display: block;" transform="matrix(1,0,0,1,390,418.9558)"><text x="0" y="0em" fill="#000000" stroke="none" style="font-family: Verdana; font-size: 7px; font-style: normal; fill-opacity: 1; cursor: default; text-anchor: middle; font-weight: normal;">EXCLUDED AREAS: UTILITY: 239 sq. ft, GARAGE: 642 sq. ft, WALLS: 396 sq. ft</text><text x="0" y="-1.2em" fill="#000000" stroke="none" style="font-family: Verdana; font-size: 7px; font-style: normal; fill-opacity: 1; cursor: default; text-anchor: middle; font-weight: normal;">Basement 1: 1510 sq. ft, 1st floor: 1904 sq. ft, 2nd floor: 2329 sq. ft</text><text x="0" y="-2.4em" fill="#000000" stroke="none" style="font-family: Verdana; font-size: 7px; font-style: normal; fill-opacity: 1; cursor: default; text-anchor: middle; font-weight: bold;">TOTAL: 5743 sq. ft</text></g></g></g></svg>