<svg xmlns="http://www.w3.org/2000/svg" viewBox="0 0 400 400" role="img" aria-label="Bergen County silhouette with Haworth Borough highlighted"><path d="M152.3,350.3L146.1,346.9L146.1,348.5L146.6,350.0L147.4,351.5L147.7,353.2L147.0,354.7L145.8,355.9L144.3,358.2L143.4,359.5L141.8,361.0L140.8,362.1L139.9,363.4L138.6,365.2L138.9,366.8L140.5,367.6L142.0,368.4L143.4,369.1L145.0,370.0L146.3,370.7L148.4,371.8L149.8,372.5L151.2,373.3L152.8,374.1L154.3,374.8L155.6,375.5L156.4,377.1L156.3,378.8L157.2,380.1L158.5,381.0L162.3,381.6L164.0,381.8L165.4,381.0L166.9,380.9L168.5,381.3L169.4,380.1L170.6,378.9L171.7,377.7L173.1,377.0L174.6,377.0L175.9,376.2L174.5,374.6L173.0,373.5L171.5,372.2L170.3,371.2L170.4,369.7L171.2,368.3L172.1,367.0L172.5,365.5L172.3,364.0L173.9,363.7L175.4,363.5L176.9,363.1L178.2,362.4L177.4,361.0L178.1,359.7L170.3,356.5L168.6,356.0L167.2,354.9L165.2,354.5L163.1,354.0L161.6,353.7L159.0,353.2L157.3,353.1L155.8,352.3L154.1,351.3L152.3,350.3Z" fill="#E5E5E5" stroke="#FFFFFF" stroke-width="0.5"/><path d="M192.8,347.3L162.1,329.1L160.9,330.1L159.7,330.9L157.2,331.5L154.4,332.1L152.5,332.6L150.4,333.2L148.7,334.5L148.1,336.0L147.4,338.1L147.2,339.6L147.1,341.4L147.1,343.3L146.9,344.9L146.1,346.7L152.3,350.3L153.6,351.1L155.0,351.9L156.5,352.7L158.5,353.8L160.4,353.5L163.0,354.0L164.8,354.4L166.6,354.8L168.7,355.2L170.3,356.5L178.3,359.1L177.2,360.7L178.1,362.0L177.1,363.1L175.6,363.5L173.9,363.6L172.5,364.0L172.5,365.5L172.1,367.0L171.3,368.2L170.5,369.5L170.1,371.0L171.5,372.2L173.0,373.5L174.3,374.5L176.0,376.0L177.4,375.2L178.8,375.8L180.4,375.8L181.9,376.2L183.1,377.1L184.7,376.9L186.0,377.7L185.9,379.3L187.6,380.3L188.7,381.5L189.4,382.9L189.0,384.4L188.2,385.8L189.4,386.8L190.3,388.1L190.8,389.5L191.7,390.9L193.2,391.1L194.5,390.1L196.3,391.5L198.2,390.6L199.3,389.1L199.6,387.3L198.9,384.1L198.5,381.0L198.0,379.4L197.4,377.1L197.2,375.1L198.1,373.4L199.0,372.2L200.5,370.5L202.1,368.9L203.2,367.8L204.7,366.3L203.0,366.0L200.8,365.7L198.8,365.3L197.3,365.1L195.8,364.6L196.0,363.1L196.6,361.5L197.3,360.2L195.6,359.4L194.0,358.7L192.6,357.6L191.1,356.7L191.5,355.1L192.9,354.1L193.8,352.4L194.4,351.0L193.3,349.9L192.3,348.6L192.8,347.3Z" fill="#E5E5E5" stroke="#FFFFFF" stroke-width="0.5"/><path d="M205.9,365.1L205.1,363.5L203.7,360.9L202.2,357.7L201.4,355.8L200.6,354.0L199.7,352.1L198.8,350.2L198.0,348.3L197.1,346.5L196.3,344.6L195.4,342.8L194.5,340.9L193.7,339.2L192.9,337.3L192.0,335.5L191.2,333.7L190.4,331.9L189.5,330.0L188.7,328.2L187.8,326.3L187.0,324.5L186.2,322.8L185.3,321.0L184.5,319.1L183.6,317.3L181.9,313.8L181.0,312.6L172.6,309.0L165.1,304.0L164.6,305.8L164.3,307.6L163.7,309.2L162.6,310.6L162.1,312.2L162.6,313.6L163.4,315.0L164.3,316.9L165.2,318.3L165.3,320.0L165.1,321.5L164.6,323.4L164.1,325.0L163.6,326.5L162.9,328.2L192.8,347.3L192.2,348.9L193.5,349.9L194.3,351.2L193.5,353.1L192.5,354.5L190.8,355.4L191.7,357.0L193.0,357.9L194.3,358.9L196.3,359.5L196.9,361.0L196.0,363.0L195.7,364.5L197.2,365.1L198.8,365.3L200.8,365.7L203.0,366.0L204.7,366.3L205.9,365.1Z" fill="#E5E5E5" stroke="#FFFFFF" stroke-width="0.5"/><path d="M301.5,316.8L299.0,315.4L295.5,313.4L288.7,309.5L279.1,304.2L278.7,306.6L278.6,308.3L278.1,310.0L277.4,311.6L275.7,312.3L273.7,312.2L271.8,311.9L270.2,311.6L268.6,311.4L267.2,310.8L264.5,308.8L263.5,307.7L262.9,305.8L262.2,304.4L260.2,304.3L258.9,305.2L259.5,306.7L259.6,308.5L259.1,309.9L258.3,311.5L258.3,313.1L259.1,314.8L259.8,316.6L259.8,318.1L258.6,319.6L256.0,321.1L254.6,322.1L253.8,323.5L254.1,325.7L254.5,327.3L255.0,328.8L256.0,330.1L257.6,331.8L258.6,333.4L258.7,335.0L258.2,337.0L257.5,338.7L259.0,339.1L260.5,338.9L260.5,337.4L261.2,336.1L262.7,335.6L263.9,336.5L265.3,337.2L264.3,335.9L265.8,335.3L266.3,333.8L267.7,333.3L269.2,333.0L269.3,331.4L270.4,330.3L271.1,328.8L272.4,328.1L273.9,328.7L275.7,328.6L277.2,328.2L278.8,328.4L280.3,327.9L281.5,326.9L282.8,326.1L284.1,325.0L287.9,326.5L292.7,329.3L294.1,327.2L295.4,325.3L297.4,322.8L301.5,316.8Z" fill="#E5E5E5" stroke="#FFFFFF" stroke-width="0.5"/><path d="M211.4,314.1L205.9,310.8L203.2,309.2L201.3,308.7L199.5,309.3L198.0,308.9L196.7,308.1L195.2,307.2L195.4,305.3L194.1,304.0L192.7,303.2L188.0,300.5L184.1,309.5L185.5,310.3L187.4,311.4L188.9,312.2L190.3,313.1L191.7,313.9L193.2,314.8L194.6,315.5L195.9,316.4L197.4,317.2L202.6,320.4L205.2,322.1L206.8,322.9L208.4,323.6L210.2,324.7L211.9,325.9L213.2,326.8L215.3,328.3L216.7,329.3L218.0,330.4L219.4,331.9L221.9,334.8L223.0,336.9L225.5,342.0L226.3,343.9L227.5,346.5L229.1,346.0L234.1,345.5L236.0,345.3L238.2,345.1L239.9,344.9L241.8,344.7L243.4,344.6L245.6,344.5L249.8,344.6L251.3,344.5L252.9,344.1L254.3,343.3L255.7,342.0L256.6,340.4L257.5,338.7L258.2,337.0L258.6,335.3L258.7,333.7L258.0,332.3L256.7,330.9L255.4,329.5L254.7,328.0L253.5,326.7L244.9,322.3L238.7,319.2L235.3,317.6L229.9,316.3L228.5,317.1L227.3,318.8L217.3,315.9L211.4,314.1Z" fill="#E5E5E5" stroke="#FFFFFF" stroke-width="0.5"/><path d="M184.1,309.5L182.1,308.4L180.6,307.5L179.0,306.6L177.6,305.7L176.3,304.8L175.1,303.9L173.9,302.7L172.7,301.4L171.7,300.3L170.3,299.3L167.9,297.8L167.0,299.0L166.7,300.5L165.8,302.3L165.1,303.8L172.6,309.0L180.0,312.1L181.3,312.9L183.6,317.3L184.5,319.1L185.3,321.0L186.2,322.8L187.0,324.5L187.8,326.3L188.7,328.2L189.5,330.0L190.4,331.9L191.2,333.7L192.0,335.5L192.9,337.3L193.7,339.2L194.5,340.9L195.4,342.8L196.3,344.6L197.1,346.5L198.0,348.3L198.8,350.2L199.7,352.1L200.6,354.0L201.4,355.8L202.2,357.7L203.2,359.8L204.5,362.3L205.9,365.1L207.1,363.9L207.9,362.5L208.9,360.2L209.8,358.3L210.9,356.9L212.4,355.8L214.0,355.4L215.5,355.1L217.3,354.8L218.8,354.1L220.2,352.4L221.5,350.7L222.8,349.2L224.3,348.1L225.6,347.3L227.0,346.6L226.5,344.3L225.5,342.0L223.5,338.0L222.5,336.0L219.4,331.9L218.4,330.8L217.0,329.5L215.3,328.3L213.9,327.3L211.9,325.9L210.2,324.7L208.7,323.8L206.8,322.9L205.2,322.1L203.5,321.0L198.5,317.8L196.7,316.8L195.4,316.0L193.9,315.2L192.6,314.4L191.1,313.5L189.6,312.7L188.1,311.8L186.6,311.0L185.2,310.2L184.1,309.5Z" fill="#E5E5E5" stroke="#FFFFFF" stroke-width="0.5"/><path d="M248.9,320.8L249.6,319.5L248.2,319.0L249.0,317.7L247.7,316.8L246.6,315.8L246.3,314.3L246.1,312.8L245.8,311.3L246.1,309.8L245.7,308.4L243.0,307.6L242.8,304.7L238.9,303.6L236.7,302.8L234.5,296.9L228.8,305.9L218.7,299.9L215.7,303.7L212.8,302.2L210.4,305.3L210.1,307.3L208.8,308.6L210.3,309.5L212.6,310.8L211.4,311.8L211.5,313.4L217.3,315.9L227.3,318.8L228.2,317.4L229.5,316.2L235.1,317.5L238.1,318.2L248.9,320.8Z" fill="#E5E5E5" stroke="#FFFFFF" stroke-width="0.5"/><path d="M291.8,295.6L289.9,294.7L288.4,295.1L286.9,294.4L283.5,293.7L282.8,295.5L281.7,296.7L280.7,298.0L279.2,301.2L278.9,302.9L288.7,309.5L295.5,313.4L299.0,315.4L305.2,309.1L310.2,304.1L304.2,300.8L302.3,299.7L296.7,296.6L295.1,295.6L292.9,294.4L291.9,295.5L291.8,295.6Z" fill="#E5E5E5" stroke="#FFFFFF" stroke-width="0.5"/><path d="M250.6,291.6L248.1,291.5L246.2,291.4L244.7,291.7L243.8,293.2L243.9,295.2L244.0,296.9L242.2,295.9L240.9,295.1L238.5,293.8L237.0,292.8L234.6,296.8L235.9,301.7L239.0,303.6L242.8,304.7L243.0,307.6L245.5,307.6L245.9,309.1L246.0,310.7L245.4,312.1L246.0,313.5L246.2,315.0L246.6,316.5L247.9,317.2L248.8,318.4L249.5,319.8L248.7,321.1L250.1,321.9L251.6,322.0L253.0,322.5L254.6,322.1L255.9,321.2L257.5,320.3L258.9,319.3L259.8,317.8L259.6,316.1L258.6,313.9L258.2,312.3L259.1,309.9L259.6,308.5L259.5,306.7L258.9,305.2L258.6,303.3L259.1,301.8L260.5,298.5L260.7,296.8L260.0,295.2L259.0,294.0L257.3,292.6L250.6,291.6Z" fill="#E5E5E5" stroke="#FFFFFF" stroke-width="0.5"/><path d="M189.2,289.0L188.0,287.9L186.5,287.1L185.1,287.6L184.2,288.8L183.5,287.5L182.2,288.2L180.9,287.2L179.2,287.1L179.7,288.8L179.7,290.7L179.6,292.4L179.1,293.8L178.0,294.9L176.5,295.4L174.8,295.0L174.1,293.5L173.9,291.9L172.6,290.8L170.8,290.5L168.9,290.6L167.0,291.3L165.7,292.1L165.0,293.4L166.4,295.6L166.9,297.1L169.4,298.7L170.7,299.6L172.0,300.6L173.3,302.0L174.5,303.3L175.7,304.4L177.6,305.7L179.0,306.6L180.5,307.5L181.8,308.2L183.1,309.0L188.0,300.5L188.9,298.4L189.5,297.0L190.4,294.7L190.8,293.2L190.6,291.6L190.0,290.1L189.2,289.0Z" fill="#E5E5E5" stroke="#FFFFFF" stroke-width="0.5"/><path d="M199.8,289.0L198.1,288.0L196.2,286.9L194.7,286.0L193.2,285.2L192.0,286.7L190.7,287.9L189.2,289.0L190.1,290.2L190.7,291.7L190.8,293.3L189.5,297.0L188.9,298.4L188.0,300.5L192.7,303.2L194.1,304.0L195.7,304.9L194.1,306.6L195.5,307.4L197.1,308.3L199.3,309.6L200.5,308.3L202.0,309.1L205.9,310.8L211.4,314.1L211.1,312.5L212.0,311.2L211.0,309.9L209.6,309.0L210.1,307.3L211.5,306.0L212.8,302.2L205.9,298.5L203.8,297.2L197.7,293.7L199.4,291.8L201.2,289.8L199.8,289.0Z" fill="#E5E5E5" stroke="#FFFFFF" stroke-width="0.5"/><path d="M266.4,284.7L257.1,282.1L253.1,280.9L253.3,282.5L253.7,284.0L255.1,285.9L256.2,287.1L256.3,288.7L256.3,290.6L256.9,292.2L258.1,293.2L259.3,294.3L260.2,295.6L260.7,297.4L259.5,300.9L258.8,302.4L258.7,304.5L261.3,304.3L262.7,305.3L263.4,307.3L264.5,308.8L266.5,310.3L267.8,311.2L269.4,311.5L271.8,311.9L273.7,312.2L275.7,312.3L277.2,311.8L278.1,310.2L278.5,308.7L278.7,307.1L278.8,304.1L278.9,302.5L280.7,298.0L281.7,296.7L282.8,295.5L283.5,293.7L283.9,292.1L285.0,290.3L274.6,286.0L267.1,284.6L266.4,284.7Z" fill="#E5E5E5" stroke="#FFFFFF" stroke-width="0.5"/><path d="M323.7,281.3L321.0,284.6L315.1,281.1L314.6,284.4L314.0,287.2L313.0,289.2L311.3,289.6L310.0,292.3L307.8,293.7L306.2,295.9L302.3,299.7L304.2,300.8L310.2,304.1L305.2,309.1L299.0,315.4L301.5,316.8L304.2,318.3L307.3,320.0L311.1,322.0L314.0,323.6L315.1,321.9L316.5,319.8L317.1,318.5L317.2,316.9L317.2,315.3L317.9,313.4L318.3,311.9L318.6,310.3L319.6,309.0L320.1,307.3L321.4,306.6L322.2,305.3L322.7,303.9L324.6,303.8L326.0,302.9L326.7,304.3L328.5,303.7L329.4,302.3L330.4,301.1L331.3,299.6L332.3,298.1L332.4,296.5L332.6,294.9L333.3,293.5L333.8,291.7L335.1,290.8L336.8,291.1L337.6,289.9L335.0,287.7L333.4,286.8L327.8,283.6L323.7,281.3Z" fill="#E5E5E5" stroke="#FFFFFF" stroke-width="0.5"/><path d="M238.1,318.2L235.1,317.5L238.7,319.2L244.9,322.3L253.4,326.7L253.9,324.8L253.9,323.0L252.6,322.3L251.1,321.8L249.7,321.3L238.1,318.2Z M189.7,283.1L189.3,284.6L187.6,284.6L186.1,285.0L185.3,286.4L186.8,287.2L188.1,288.0L190.7,287.9L191.9,286.9L193.0,285.5L189.7,283.1Z M233.6,276.4L229.9,279.6L231.4,280.6L236.6,281.6L237.1,283.3L239.5,284.3L239.7,286.1L239.8,287.8L237.0,292.8L238.5,293.8L240.9,295.1L242.2,295.9L243.8,296.9L243.9,295.2L243.8,293.2L244.7,291.8L246.2,291.4L248.1,291.5L250.6,291.6L240.0,276.9L238.2,277.0L233.6,276.4Z" fill="#E5E5E5" stroke="#FFFFFF" stroke-width="0.5"/><path d="M228.5,281.5L228.7,279.9L227.9,278.6L219.6,273.9L218.8,275.8L218.1,277.3L217.3,279.3L216.2,280.5L214.8,279.7L213.4,280.1L212.2,281.3L209.0,279.9L206.4,278.4L205.3,279.5L207.9,281.0L206.7,282.2L205.6,283.3L204.3,284.6L199.8,289.0L201.2,289.8L199.4,291.8L197.7,293.7L203.8,297.2L205.9,298.5L211.5,301.7L215.7,303.8L218.7,299.9L215.8,298.3L219.7,293.2L223.3,288.6L225.3,285.9L228.7,281.6L228.5,281.5Z" fill="#E5E5E5" stroke="#FFFFFF" stroke-width="0.5"/><path d="M305.7,275.2L304.2,274.5L302.7,274.1L301.0,273.9L299.1,273.3L297.1,273.5L296.1,274.7L296.5,276.3L295.7,277.9L294.5,278.8L293.6,280.4L292.5,282.1L291.4,283.2L290.3,284.4L288.7,285.3L287.1,287.2L285.0,290.3L283.9,292.1L283.5,293.7L285.5,294.4L287.2,294.3L289.0,294.9L291.8,295.6L292.8,294.4L295.1,295.6L296.4,296.4L302.2,299.7L306.2,295.9L308.2,293.9L309.6,292.0L311.1,290.3L312.8,290.0L313.5,288.3L314.5,285.5L315.0,281.9L310.6,278.5L308.5,277.1L307.4,276.2L305.6,275.3L305.7,275.2Z" fill="#E5E5E5" stroke="#FFFFFF" stroke-width="0.5"/><path d="M265.5,275.7L267.6,269.3L263.0,267.7L260.4,267.1L257.4,266.1L254.5,265.4L253.3,266.9L252.1,268.1L250.6,269.4L249.3,270.2L249.3,271.8L250.7,272.5L252.5,272.8L253.9,273.5L254.1,275.0L253.3,277.0L253.0,278.8L253.1,280.9L257.1,282.1L266.4,284.7L268.6,277.1L267.2,276.5L265.8,275.9L265.5,275.7Z" fill="#E5E5E5" stroke="#FFFFFF" stroke-width="0.5"/><path d="M186.2,265.2L185.5,263.8L184.3,262.7L183.3,260.2L182.8,258.6L182.6,257.1L181.5,256.0L180.0,256.3L178.5,256.7L177.0,257.1L174.5,257.8L167.2,259.6L157.2,262.3L155.9,263.2L156.1,264.7L160.8,266.9L162.5,267.6L164.4,268.4L165.6,269.7L166.5,270.9L167.5,272.4L168.9,273.7L170.3,274.6L171.2,275.8L171.8,277.4L172.3,279.3L173.6,280.8L174.6,282.3L175.1,283.8L175.7,285.2L177.2,285.8L178.9,286.8L180.5,287.1L181.9,288.0L183.3,287.5L184.0,288.9L185.0,287.8L185.3,286.1L186.3,284.9L187.9,284.7L189.3,284.2L190.0,282.8L190.7,281.4L193.3,280.3L191.7,279.5L190.8,278.3L189.1,277.4L189.5,275.6L190.6,274.3L191.6,272.8L192.5,271.5L193.1,270.1L193.7,268.6L194.2,266.9L194.7,265.1L195.3,263.0L193.0,263.5L191.3,264.0L189.6,264.4L187.9,264.8L186.2,265.2Z" fill="#E5E5E5" stroke="#FFFFFF" stroke-width="0.5"/><path d="M215.2,257.6L213.9,256.8L212.3,255.8L210.6,254.8L209.1,254.3L208.5,255.8L207.9,257.2L207.3,258.7L206.3,259.8L204.2,260.8L202.4,261.3L200.6,261.7L198.3,262.3L196.7,262.6L194.9,264.4L194.5,265.9L193.8,268.1L193.1,270.1L192.5,271.5L191.6,272.8L190.8,274.2L189.6,275.6L188.4,276.9L189.9,277.8L191.1,278.7L193.3,280.3L191.3,281.1L190.5,282.4L193.2,285.2L194.7,286.0L196.2,286.9L197.6,287.7L199.8,289.0L203.7,285.2L205.1,283.8L206.7,282.2L207.9,281.0L205.3,279.5L206.4,278.4L209.0,279.9L211.9,281.6L213.4,280.1L214.8,279.7L216.2,280.5L217.3,279.3L218.1,277.3L218.8,275.8L219.6,273.9L222.6,267.1L223.5,262.5L221.9,261.5L220.1,260.5L218.5,259.5L216.9,258.6L215.3,257.6L215.2,257.6Z" fill="#E5E5E5" stroke="#FFFFFF" stroke-width="0.5"/><path d="M357.1,249.5L345.3,242.9L342.3,248.4L339.2,253.6L335.2,260.1L332.5,264.6L335.8,266.5L334.7,267.8L333.5,269.3L332.0,271.2L330.9,272.6L327.7,276.4L326.1,278.5L324.6,280.0L323.1,281.0L327.8,283.6L333.4,286.8L335.0,287.7L337.1,288.9L337.8,287.3L338.8,285.8L339.5,284.4L340.2,282.7L341.0,281.3L341.8,279.7L342.8,278.3L343.6,276.9L344.5,275.8L345.3,274.4L346.0,272.9L345.8,271.3L346.7,269.8L347.6,268.5L347.7,266.9L348.8,265.8L349.4,264.3L349.8,262.8L350.8,261.5L351.7,260.3L352.2,258.9L353.0,257.6L353.6,256.2L354.5,254.9L355.5,253.5L356.1,252.1L356.7,250.6L357.1,249.5Z" fill="#E5E5E5" stroke="#FFFFFF" stroke-width="0.5"/><path d="M254.5,265.4L255.4,263.9L255.7,262.4L254.3,261.8L252.6,261.3L251.7,260.0L252.2,258.4L253.3,257.0L254.8,255.7L256.2,254.7L257.6,253.6L258.0,252.1L257.5,250.4L257.1,248.8L257.7,247.4L259.3,246.5L260.9,246.0L262.0,244.9L262.1,243.3L263.3,242.2L264.5,241.2L263.7,239.9L263.5,238.4L262.3,237.4L261.7,235.9L260.1,235.6L259.1,236.8L257.5,236.7L256.4,237.8L255.0,238.3L253.8,239.3L252.4,240.0L251.0,239.7L249.8,238.7L248.6,237.7L247.1,237.5L245.6,236.8L244.1,236.3L242.6,236.1L241.1,235.7L239.5,235.7L238.5,237.0L237.8,238.4L236.7,239.4L235.7,240.5L234.5,241.5L233.7,242.8L233.2,244.2L232.0,245.1L231.3,246.4L231.0,248.0L230.6,250.2L229.8,251.6L229.1,253.4L229.0,255.0L228.8,256.5L228.2,257.8L226.7,258.5L226.1,259.9L224.9,261.1L223.8,262.2L222.6,267.1L219.6,273.9L227.5,278.3L228.6,279.5L228.7,281.1L229.9,279.6L232.7,276.0L237.7,277.2L239.7,276.9L250.6,291.6L256.7,291.9L256.2,290.0L256.4,288.3L256.0,286.7L254.2,284.8L253.4,283.4L253.2,281.7L253.1,280.0L253.0,278.4L253.7,276.1L254.2,274.6L253.6,273.1L252.0,272.7L250.2,272.4L249.2,271.2L249.9,269.8L251.4,268.8L252.8,267.5L254.2,265.8L254.5,265.4Z" fill="#E5E5E5" stroke="#FFFFFF" stroke-width="0.5"/><path d="M342.3,248.4L333.8,243.5L327.4,239.8L323.1,237.4L319.1,235.1L317.2,235.9L314.9,236.1L313.3,236.2L311.6,236.3L309.2,236.5L307.5,236.7L302.6,237.0L301.6,238.4L300.8,241.7L300.9,244.8L299.6,250.7L298.0,255.9L296.7,258.5L295.6,260.8L297.0,261.3L303.1,263.4L301.5,265.4L297.2,270.4L296.9,272.1L296.2,273.4L298.1,274.0L300.2,273.4L302.6,274.1L304.2,274.5L305.7,275.2L307.4,276.2L308.5,277.1L310.6,278.5L315.1,281.1L321.0,284.6L323.7,281.3L324.2,279.8L325.8,278.8L327.9,276.5L330.9,272.6L332.0,271.2L333.5,269.3L334.7,267.8L335.7,266.6L332.5,264.6L335.2,260.1L339.2,253.6L342.3,248.4Z" fill="#E5E5E5" stroke="#FFFFFF" stroke-width="0.5"/><path d="M270.3,233.7L269.0,232.9L267.9,231.6L266.4,231.9L264.6,232.3L262.9,232.9L261.3,233.4L260.2,234.5L260.9,235.8L262.2,236.7L263.0,238.2L263.7,239.5L264.3,240.9L263.3,242.2L262.2,243.2L262.0,244.9L260.9,246.0L259.5,246.4L257.9,247.3L257.2,248.7L257.4,250.2L258.0,251.7L257.8,253.3L256.6,254.4L255.3,255.4L253.9,256.4L252.2,258.4L251.7,260.0L252.6,261.3L254.3,261.8L255.7,262.4L255.4,263.9L254.5,265.4L257.2,266.1L259.4,266.7L262.8,267.9L267.6,269.3L265.5,275.7L267.2,276.5L268.6,277.1L267.1,284.6L273.9,285.6L285.0,290.3L286.5,288.1L287.8,286.2L289.8,284.7L291.0,283.7L292.1,282.4L293.2,281.1L293.9,279.7L295.1,278.4L296.3,277.4L296.3,275.8L296.1,274.2L296.6,272.6L297.9,270.9L301.5,265.4L303.1,263.4L297.2,261.4L295.7,260.9L296.7,258.7L298.0,255.9L299.6,250.7L300.9,246.1L300.8,241.7L301.6,238.4L298.7,237.7L297.1,237.6L294.8,237.2L292.6,236.7L289.6,236.1L288.0,237.7L286.5,238.2L284.9,240.4L282.1,239.6L280.1,238.9L272.1,236.7L273.2,234.1L271.3,234.0L270.3,233.7Z" fill="#E5E5E5" stroke="#FFFFFF" stroke-width="0.5"/><path d="M238.0,238.3L233.2,235.5L231.1,235.7L223.5,231.1L221.2,235.7L219.0,240.3L216.0,250.1L215.2,257.6L216.9,258.6L218.5,259.5L220.1,260.5L221.9,261.5L223.5,262.5L224.6,261.3L225.8,260.3L226.5,259.0L227.8,258.1L228.7,256.9L229.0,255.0L229.1,253.4L229.7,251.9L230.5,250.4L231.1,249.0L231.0,247.5L231.4,246.0L232.3,244.8L233.4,243.8L234.2,242.5L235.0,241.2L236.1,240.1L237.2,239.0L238.0,238.3Z" fill="#E5E5E5" stroke="#FFFFFF" stroke-width="0.5"/><path d="M219.0,240.3L214.9,237.8L213.5,237.0L210.9,235.4L209.6,234.6L204.5,230.4L203.1,229.7L197.8,228.7L198.6,230.0L198.6,231.5L198.4,233.0L197.7,234.3L197.4,235.8L197.8,237.2L198.7,238.6L199.4,239.9L200.2,241.3L201.4,242.6L202.7,243.2L204.2,243.3L205.6,243.8L206.9,244.6L205.8,245.6L205.4,247.1L206.2,248.5L206.5,249.9L207.3,251.2L207.8,252.6L208.8,253.7L210.1,254.5L211.6,255.4L213.8,256.7L215.2,257.6L216.0,250.1L218.4,241.6L219.0,240.3Z" fill="#E5E5E5" stroke="#FFFFFF" stroke-width="0.5"/><path d="M194.6,228.3L187.0,227.3L182.7,228.4L173.2,230.8L173.9,232.3L178.8,241.7L180.4,244.7L181.8,247.3L183.3,250.2L184.1,252.2L184.9,255.1L182.6,255.7L182.6,257.3L183.0,259.4L183.8,261.6L185.0,263.3L185.9,264.5L187.9,264.8L189.6,264.4L191.3,264.0L193.0,263.5L195.2,263.0L196.7,262.7L198.3,262.3L200.5,261.7L202.0,261.3L204.2,260.8L205.8,260.5L206.8,259.3L207.6,257.9L208.3,256.3L208.8,254.8L208.5,253.3L207.9,251.9L207.8,250.3L206.5,249.6L206.1,248.2L205.2,246.8L206.1,245.2L205.6,243.8L204.2,243.3L202.7,243.2L201.2,242.2L200.0,241.2L199.4,239.8L198.4,238.6L197.8,237.2L197.3,235.8L197.8,234.3L199.1,233.6L198.0,232.6L199.5,232.6L198.6,231.4L198.6,229.9L195.1,228.4L194.6,228.3Z" fill="#E5E5E5" stroke="#FFFFFF" stroke-width="0.5"/><path d="M173.2,230.8L171.6,226.5L169.0,227.3L164.7,228.4L163.5,225.6L162.7,223.7L153.6,226.0L155.0,226.7L156.3,227.8L156.3,229.5L155.4,231.0L154.7,232.3L153.5,233.7L152.6,235.4L152.4,236.9L153.1,238.5L153.8,240.0L154.2,242.1L154.2,243.7L153.5,245.1L152.6,246.4L152.3,248.0L152.2,249.6L152.5,251.1L153.6,252.3L155.1,253.0L156.7,254.1L157.4,256.3L156.9,259.0L156.6,261.0L156.2,262.5L167.2,259.6L174.4,257.8L177.0,257.1L178.5,256.7L180.0,256.3L181.5,256.0L184.9,255.1L184.5,253.4L183.8,251.4L181.8,247.3L180.4,244.7L178.8,241.7L173.9,232.3L173.2,230.8Z" fill="#E5E5E5" stroke="#FFFFFF" stroke-width="0.5"/><path d="M349.7,222.3L345.1,219.6L328.9,210.1L327.1,211.4L325.1,211.8L323.4,212.4L320.7,213.5L310.8,213.9L309.7,215.5L308.9,216.8L308.5,219.7L308.5,224.2L308.2,226.9L308.6,229.1L307.2,233.6L306.4,236.1L308.0,236.6L310.4,236.4L312.1,236.3L314.5,236.1L316.0,236.0L317.9,235.8L323.1,237.4L327.4,239.8L333.8,243.5L342.3,248.4L345.3,242.9L357.1,249.5L357.7,248.0L358.6,246.7L359.3,245.4L359.9,244.0L360.2,242.5L360.8,240.9L361.2,239.4L361.8,237.9L362.4,236.5L363.1,235.1L363.7,233.7L364.5,231.8L349.7,222.3Z" fill="#E5E5E5" stroke="#FFFFFF" stroke-width="0.5"/><path d="M311.2,211.1L303.8,211.4L295.5,211.7L286.3,212.2L286.6,209.6L284.6,209.5L286.4,210.8L283.7,210.9L278.9,211.7L277.9,214.2L276.7,215.6L278.0,216.9L277.4,220.5L276.9,224.2L276.4,225.6L276.1,227.1L275.1,228.4L273.2,234.1L272.1,236.7L279.8,239.4L282.1,239.6L284.9,240.4L285.6,239.0L286.6,237.7L288.3,236.3L292.4,236.7L294.8,237.2L297.1,237.6L298.7,237.7L300.5,237.4L302.1,237.1L306.1,236.8L307.2,233.6L308.6,229.1L308.8,226.9L308.4,224.2L308.2,220.5L308.6,218.3L310.0,216.8L309.7,214.0L311.2,211.1Z" fill="#E5E5E5" stroke="#FFFFFF" stroke-width="0.5"/><path d="M259.0,206.5L249.8,204.0L249.5,205.6L248.6,206.8L247.5,208.0L246.2,208.9L245.0,209.9L244.1,211.1L243.2,212.3L242.6,213.8L241.6,214.9L240.4,215.8L240.1,217.3L239.0,218.4L238.6,219.8L238.8,221.4L239.5,222.8L238.9,224.2L239.1,225.7L239.4,227.2L239.0,228.7L238.9,230.2L238.4,231.6L239.1,232.9L240.7,232.7L242.2,233.0L243.6,233.4L245.0,234.3L246.4,234.9L246.9,236.4L247.8,237.7L249.3,238.1L250.0,239.5L251.6,239.8L253.2,239.7L254.4,238.8L255.9,237.8L257.4,237.5L258.9,237.2L259.0,235.6L258.8,234.0L257.9,232.7L256.7,231.7L255.9,230.4L255.8,228.5L256.2,226.8L256.6,225.3L257.6,224.0L256.3,223.3L257.0,221.9L258.5,221.5L259.2,220.1L258.8,218.6L259.3,217.1L260.0,215.7L260.1,214.2L260.8,212.6L261.6,211.1L262.7,210.0L263.6,208.8L259.0,206.5L259.0,206.5Z" fill="#E5E5E5" stroke="#FFFFFF" stroke-width="0.5"/><path d="M287.5,195.6L278.8,195.6L273.2,195.5L269.6,196.1L264.9,196.0L264.8,197.7L264.6,199.9L266.1,200.4L266.2,202.0L264.7,202.1L263.2,202.1L264.1,203.3L264.9,204.6L264.5,206.1L264.3,207.6L263.5,209.0L262.6,210.3L261.3,211.3L260.7,212.8L260.0,214.5L260.1,216.1L258.9,217.2L259.2,218.8L259.1,220.3L257.8,221.1L256.6,222.2L257.3,223.7L256.8,225.2L256.2,226.8L255.9,228.4L255.8,230.1L256.5,231.5L257.7,232.5L258.8,233.6L260.2,234.5L261.3,233.4L262.9,232.9L264.5,232.4L266.1,232.0L267.7,231.6L268.9,232.8L270.2,233.7L271.7,234.0L274.7,229.1L275.3,227.7L276.3,226.6L276.5,225.1L277.4,220.5L278.0,216.9L276.7,215.6L277.9,214.2L278.1,212.3L279.5,204.4L279.7,201.5L282.1,201.4L287.2,201.5L287.5,196.9L287.5,195.6Z" fill="#E5E5E5" stroke="#FFFFFF" stroke-width="0.5"/><path d="M197.8,228.7L197.4,227.2L196.6,225.9L197.1,224.5L196.2,223.3L196.6,221.8L195.5,220.5L194.1,219.6L193.4,218.2L194.4,216.7L195.0,215.4L195.0,213.9L193.9,212.7L192.7,211.8L192.9,210.2L192.6,208.7L194.0,207.9L194.2,206.4L192.9,205.7L192.5,204.1L191.1,203.4L190.1,202.3L188.6,201.8L187.2,201.1L185.9,200.4L186.1,198.9L186.2,197.4L186.7,196.0L186.9,194.5L186.8,192.7L179.7,196.7L160.1,197.1L148.6,197.2L149.4,195.7L146.7,196.3L145.1,197.1L143.8,198.3L142.1,198.9L140.1,199.1L138.8,200.0L138.3,201.4L137.8,203.0L137.4,204.6L137.3,206.2L139.0,206.2L140.7,206.5L141.9,207.6L142.8,209.0L143.8,210.2L145.0,211.7L145.7,213.0L146.1,214.7L145.2,216.5L143.9,217.6L143.1,219.1L143.4,221.2L144.3,222.9L145.2,224.2L146.8,225.2L148.4,225.5L149.9,225.4L151.6,225.4L153.6,226.0L162.7,223.7L163.5,225.6L164.3,227.5L169.0,227.3L171.6,226.5L172.7,229.5L182.7,228.4L187.0,227.3L194.6,228.3L197.9,228.8L197.8,228.7Z" fill="#E5E5E5" stroke="#FFFFFF" stroke-width="0.5"/><path d="M330.0,199.5L330.0,196.6L330.0,193.5L328.3,192.6L327.0,193.6L315.2,194.4L315.0,196.3L314.9,197.8L314.8,199.6L314.6,201.3L314.4,203.1L314.2,204.8L314.1,206.6L312.6,206.6L311.6,207.9L311.2,211.1L310.8,213.9L320.6,213.5L322.5,213.4L325.2,212.3L327.1,211.7L328.9,211.1L345.1,219.6L349.7,222.3L353.2,215.5L356.4,209.2L349.3,205.0L343.5,207.3L336.3,203.1L334.9,202.3L333.5,201.6L330.9,200.0L330.0,199.5Z" fill="#E5E5E5" stroke="#FFFFFF" stroke-width="0.5"/><path d="M314.9,193.2L297.7,192.6L287.7,192.2L287.5,195.6L287.2,200.6L282.1,201.4L279.7,201.5L279.5,204.4L278.9,211.6L283.7,211.7L285.5,210.9L284.6,209.5L286.6,209.6L286.3,212.2L295.5,211.8L303.8,211.4L311.2,211.1L311.6,207.9L312.6,206.6L314.1,206.6L314.2,204.8L314.4,203.1L314.6,201.3L314.8,199.6L314.9,197.8L315.0,196.3L315.2,194.5L314.9,193.2Z" fill="#E5E5E5" stroke="#FFFFFF" stroke-width="0.5"/><path d="M340.9,186.4L332.3,181.1L328.7,179.0L328.3,180.6L325.6,180.2L320.8,179.6L318.6,179.5L316.9,179.4L315.9,183.5L315.4,189.6L314.9,193.2L326.5,193.9L328.0,193.0L330.0,193.5L330.0,196.6L330.0,199.4L332.4,200.9L334.9,202.3L336.3,203.1L343.5,207.3L349.3,205.0L352.3,201.2L355.1,197.7L353.8,195.5L351.8,193.0L347.2,189.7L341.0,186.4L340.9,186.4Z" fill="#E5E5E5" stroke="#FFFFFF" stroke-width="0.5"/><path d="M273.4,179.4L265.2,177.1L262.0,176.7L260.1,177.3L258.5,176.8L252.1,175.1L251.7,178.9L250.9,184.9L249.4,184.5L247.5,184.0L245.8,183.5L243.9,183.0L242.0,182.4L239.9,181.8L239.0,183.3L238.7,184.8L238.5,186.3L237.8,188.0L237.3,189.5L237.3,191.5L238.7,192.8L240.9,193.4L242.5,193.8L244.1,194.2L245.9,194.7L245.2,196.6L244.4,198.6L243.8,200.0L243.2,201.4L249.8,204.0L259.0,206.5L263.3,207.6L264.4,206.5L264.6,205.0L264.2,203.5L263.1,202.4L264.7,202.1L265.9,203.1L266.1,201.5L265.3,200.2L264.8,197.8L264.9,196.0L269.6,196.1L273.3,196.1L278.8,195.6L287.5,195.6L287.7,192.2L277.6,191.8L270.3,190.5L265.5,189.0L263.0,188.3L264.0,186.9L265.5,186.5L267.0,186.0L267.4,184.5L267.8,183.0L269.3,183.4L270.7,182.7L272.1,182.1L273.4,181.2L273.4,179.6L273.4,179.4Z" fill="#E5E5E5" stroke="#FFFFFF" stroke-width="0.5"/><path d="M165.9,175.8L165.3,174.4L162.3,174.5L160.5,174.6L157.9,174.5L149.9,174.2L148.5,175.8L147.4,177.2L146.4,178.6L145.4,179.8L144.5,181.0L144.2,182.8L143.5,184.7L143.0,186.3L142.3,188.0L141.8,189.5L141.2,190.9L140.8,192.4L140.3,194.0L139.8,196.0L139.4,197.6L139.0,199.1L140.6,199.0L142.5,198.8L144.4,197.8L145.6,196.7L147.9,196.0L160.1,197.1L179.7,196.7L186.9,192.3L185.5,191.5L184.1,191.0L182.7,190.3L181.5,189.2L180.7,187.9L180.5,186.4L180.7,184.8L180.2,183.4L179.1,182.3L178.0,181.2L176.7,180.4L175.1,179.7L173.4,179.8L172.1,178.8L171.4,177.1L168.1,176.9L168.8,175.4L165.9,175.8Z" fill="#E5E5E5" stroke="#FFFFFF" stroke-width="0.5"/><path d="M200.8,166.6L199.2,166.3L197.5,166.1L196.1,166.5L194.6,167.0L194.7,168.5L195.1,170.1L195.5,171.5L195.2,173.1L194.6,174.5L193.0,175.1L191.8,176.2L190.5,177.1L190.0,178.5L190.4,180.1L190.0,181.6L190.1,183.1L191.6,183.3L192.9,184.2L192.8,185.8L192.0,187.1L191.3,188.6L189.9,189.5L188.5,190.7L187.4,191.8L186.8,193.2L187.0,194.7L186.6,196.1L186.2,197.6L185.9,199.0L186.2,200.5L187.5,201.2L188.9,202.0L190.2,202.8L191.6,203.5L192.4,204.8L193.6,205.7L194.3,207.5L192.8,208.6L192.9,210.2L193.4,211.6L194.1,213.0L195.2,213.9L194.9,215.4L194.2,216.9L193.4,218.3L194.3,219.6L195.7,220.7L196.0,222.3L196.8,223.6L196.9,225.1L197.2,226.6L197.7,228.0L202.4,229.5L203.9,230.0L208.5,233.8L210.9,235.4L213.5,237.0L214.9,237.8L219.0,240.3L221.2,235.7L223.5,231.1L231.1,235.7L232.6,236.5L237.9,238.3L238.5,236.8L239.6,235.7L241.2,235.7L242.8,236.1L244.4,236.5L245.9,236.8L247.0,235.7L245.8,234.6L244.4,234.1L243.2,233.1L241.7,233.0L240.2,233.0L238.9,232.1L238.6,230.6L239.0,229.1L239.4,227.6L239.3,226.0L238.8,224.6L239.4,223.2L239.1,221.6L238.1,220.5L238.8,219.0L239.5,217.6L240.3,216.3L241.2,215.1L242.4,214.0L243.1,212.5L244.0,211.3L244.7,210.0L246.0,209.1L247.0,208.0L248.3,207.1L249.2,205.8L249.8,204.0L242.9,202.2L243.5,200.7L244.4,198.6L245.2,196.6L245.9,194.7L244.1,194.2L242.5,193.8L240.9,193.4L238.7,192.8L237.3,191.5L237.2,189.9L237.8,188.1L238.4,186.6L238.7,184.9L239.0,183.3L239.6,181.8L240.4,179.4L241.4,176.9L242.5,173.6L238.6,172.6L236.2,178.2L232.9,177.4L232.6,179.8L228.4,176.8L220.1,170.5L218.0,170.1L216.4,169.7L213.3,169.1L211.2,168.6L209.6,168.2L208.0,168.0L206.3,167.7L200.8,166.6Z" fill="#E5E5E5" stroke="#FFFFFF" stroke-width="0.5"/><path d="M357.9,169.9L356.6,169.1L355.1,168.7L353.6,168.4L352.4,167.5L351.6,166.2L350.8,164.8L349.7,163.8L348.3,163.0L346.8,162.7L345.3,162.9L343.8,162.6L342.3,162.4L340.8,162.8L339.4,163.3L338.0,163.9L336.8,163.0L335.3,162.4L333.8,162.8L332.2,162.8L330.7,162.9L328.7,163.7L327.3,163.2L325.8,162.6L324.3,162.9L322.7,162.7L321.0,162.8L319.5,163.0L318.2,163.7L316.9,164.6L315.4,164.5L313.8,164.9L312.4,166.1L311.0,166.6L309.8,167.9L309.7,169.4L308.4,168.7L307.0,169.4L306.0,170.5L304.5,171.5L303.3,172.4L302.7,171.0L301.0,170.9L299.5,170.9L298.2,171.8L296.5,171.5L295.2,172.5L293.7,172.8L293.2,174.3L291.9,173.4L290.7,174.4L289.0,174.3L288.3,175.6L305.2,176.6L304.0,178.8L316.2,179.3L318.6,179.5L320.6,179.5L325.5,179.8L328.1,181.6L328.5,179.8L332.3,181.1L340.9,186.4L347.2,189.7L348.3,188.6L351.3,185.1L352.7,183.1L354.6,179.1L357.1,174.3L357.4,172.1L357.9,169.9Z" fill="#E5E5E5" stroke="#FFFFFF" stroke-width="0.5"/><path d="M292.4,165.0L290.8,165.0L289.1,164.8L287.6,164.4L286.4,163.6L286.3,162.0L286.1,160.3L284.5,161.4L284.0,163.2L282.8,164.4L282.1,165.8L281.1,167.1L277.4,167.4L274.5,165.7L272.6,165.4L264.9,164.0L262.0,163.6L253.4,162.2L252.0,163.9L250.8,165.6L249.9,167.2L247.7,169.7L246.6,172.4L243.2,172.7L239.9,172.0L232.7,170.4L231.5,173.2L233.3,173.6L231.7,177.1L236.2,178.2L238.6,172.6L242.5,173.6L241.6,176.4L240.4,179.4L239.5,181.7L242.0,182.4L243.9,183.0L245.8,183.5L247.3,183.9L249.3,184.5L250.9,184.9L251.5,180.1L252.1,175.1L258.6,176.5L260.2,176.9L262.0,176.7L265.0,177.5L273.4,179.4L274.7,180.2L276.3,180.3L275.7,178.9L277.2,179.1L277.0,177.6L278.4,177.0L279.6,176.0L281.2,175.8L281.6,177.3L283.0,176.7L284.2,175.8L285.4,174.8L286.6,175.8L288.1,176.2L288.3,174.6L289.8,174.2L291.7,173.4L292.8,174.4L293.4,173.0L295.2,172.5L296.5,171.5L296.5,167.7L295.4,166.6L294.0,166.0L292.8,165.0L292.4,165.0Z" fill="#E5E5E5" stroke="#FFFFFF" stroke-width="0.5"/><path d="M259.7,147.7L258.5,146.6L257.0,146.4L255.5,146.2L254.1,147.0L252.6,146.8L251.1,147.1L242.3,147.5L242.1,149.1L241.9,150.6L241.6,153.1L241.4,155.6L241.0,157.7L240.5,159.2L239.4,163.7L239.8,165.2L239.5,167.0L239.2,168.9L240.5,170.1L239.3,171.1L237.8,170.9L236.4,170.3L235.0,169.7L233.5,170.0L239.9,172.0L243.2,172.7L246.0,173.4L247.7,169.7L248.8,168.2L250.0,166.9L251.4,164.7L253.4,162.2L262.0,163.6L264.9,164.0L272.6,165.4L274.5,165.7L277.9,166.4L280.5,168.0L281.6,166.5L282.4,165.1L283.2,163.0L284.5,161.4L285.6,159.4L284.3,158.5L284.4,157.0L282.9,156.4L281.7,157.2L281.1,155.8L279.6,156.2L278.1,155.9L276.6,156.3L275.1,156.5L273.6,156.9L272.5,155.9L271.7,154.6L271.3,153.1L269.8,153.0L268.3,153.2L266.8,153.4L267.3,151.9L268.3,150.9L269.0,149.5L269.2,148.0L268.5,146.6L267.0,146.8L265.7,147.8L264.4,148.8L263.1,149.7L262.2,150.9L260.8,151.5L259.2,151.3L258.6,149.9L259.7,148.6L259.7,147.7Z" fill="#E5E5E5" stroke="#FFFFFF" stroke-width="0.5"/><path d="M219.7,143.8L218.0,143.1L213.1,141.9L210.4,141.4L209.6,142.8L208.9,144.6L208.2,146.6L208.6,148.1L207.7,150.8L208.5,155.4L208.5,157.3L208.7,158.9L208.6,160.4L208.9,162.0L208.9,164.4L209.1,166.0L208.6,167.5L210.3,168.4L212.4,168.9L215.5,169.5L217.1,169.9L218.7,170.2L228.4,176.8L231.8,179.3L232.9,177.4L233.3,173.6L231.5,173.2L232.7,170.4L234.0,169.5L235.4,170.1L236.9,170.5L238.3,171.0L239.9,170.9L239.3,169.5L239.4,167.8L239.8,165.5L239.5,163.8L240.4,160.1L240.6,158.2L241.3,156.1L241.7,154.3L242.2,150.8L241.9,149.3L242.3,147.5L239.5,147.0L237.1,146.6L235.2,146.2L232.8,145.7L230.0,145.3L225.1,144.2L221.8,143.2L220.3,143.5L219.7,143.8Z" fill="#E5E5E5" stroke="#FFFFFF" stroke-width="0.5"/><path d="M390.8,148.7L388.9,148.0L381.2,144.6L370.8,139.9L370.4,141.5L368.5,148.2L367.4,151.8L363.4,164.8L359.5,164.3L357.9,169.9L357.4,172.1L357.1,174.3L354.6,179.1L352.7,183.1L351.3,185.1L348.3,188.6L347.2,189.7L352.1,192.6L354.4,194.5L355.9,196.8L352.3,201.2L349.3,205.0L356.4,209.2L353.2,215.5L349.7,222.3L365.0,231.1L365.6,229.6L365.6,228.1L366.2,226.7L366.5,224.0L367.0,222.5L367.7,220.9L367.7,219.4L368.1,218.0L368.5,216.3L369.0,214.9L369.2,213.3L369.6,211.6L370.5,210.0L371.5,208.8L372.4,207.6L373.0,206.1L373.6,204.7L374.0,203.0L374.1,201.5L374.7,199.9L374.5,198.4L374.8,197.0L375.8,195.8L376.2,194.3L377.3,191.7L378.1,190.4L378.4,188.9L378.6,187.4L379.0,185.9L380.5,185.0L381.0,183.0L381.8,181.7L382.8,180.4L383.3,178.9L383.3,177.3L383.6,175.8L383.9,174.2L384.4,172.6L385.2,171.3L385.6,169.8L385.7,168.1L386.5,166.6L387.3,164.8L387.5,163.3L387.7,161.8L388.0,160.3L388.4,158.8L388.7,157.3L388.9,155.8L389.9,154.4L390.4,152.9L390.6,151.4L390.7,149.9L390.8,148.7Z" fill="#E5E5E5" stroke="#FFFFFF" stroke-width="0.5"/><path d="M323.1,155.1L320.3,151.2L321.2,145.9L321.8,142.9L322.4,139.0L317.9,139.6L310.8,140.6L306.9,144.2L304.8,146.9L304.3,148.5L303.8,150.0L302.9,151.2L303.0,152.8L302.9,154.3L301.8,155.4L300.7,156.9L296.6,157.5L295.6,158.7L293.9,158.0L292.2,157.8L293.4,159.9L295.0,161.4L295.1,163.2L293.8,165.4L295.0,166.5L296.6,166.6L296.5,171.2L297.8,172.0L299.0,171.1L301.0,170.9L302.5,170.8L302.1,172.2L303.9,171.9L305.3,171.1L306.5,169.9L307.8,169.0L309.2,169.3L310.3,168.1L310.9,166.7L312.4,166.1L313.6,165.0L315.1,164.6L316.6,164.8L317.7,163.8L319.1,163.1L320.7,162.6L322.1,163.1L323.5,162.7L325.2,162.4L326.7,162.6L327.9,163.7L324.0,154.5L323.1,155.1Z" fill="#E5E5E5" stroke="#FFFFFF" stroke-width="0.5"/><path d="M166.1,139.4L164.6,139.4L162.9,140.0L161.3,140.1L159.8,139.9L158.3,138.7L155.1,139.3L155.2,140.9L155.3,142.7L153.6,148.7L152.9,150.6L158.2,151.7L156.1,155.5L154.3,158.7L153.4,160.4L151.9,162.0L150.6,163.4L149.3,164.1L144.0,164.5L142.7,165.5L141.7,167.0L140.7,168.7L139.9,170.0L139.0,171.4L138.2,172.8L137.1,174.5L136.3,175.8L141.6,178.9L144.5,180.6L145.8,179.4L146.8,178.0L148.2,176.3L149.2,175.0L157.9,174.5L160.5,174.6L162.3,174.5L164.0,174.1L165.7,175.3L169.0,175.2L167.8,176.5L171.0,176.4L171.7,177.8L172.3,179.4L174.1,179.7L176.1,179.7L177.2,180.8L178.3,181.9L179.8,182.4L180.3,183.8L180.5,185.4L180.5,186.9L180.8,188.4L182.0,189.8L183.6,190.8L185.2,191.4L186.9,192.3L188.0,191.2L189.2,190.1L190.6,189.1L191.9,188.2L192.2,186.6L193.0,185.2L192.3,183.7L190.9,183.3L190.0,182.1L190.2,180.6L190.0,178.9L190.3,177.4L191.5,176.5L192.6,175.3L194.0,174.8L195.0,173.6L195.4,172.1L195.4,170.5L195.3,169.0L194.3,167.8L195.5,166.8L197.5,166.1L199.2,166.3L200.8,166.6L205.7,167.6L207.3,167.9L209.2,168.2L208.9,166.5L209.4,164.5L208.8,162.0L208.6,160.5L208.9,159.0L208.8,157.5L206.4,156.5L204.7,156.2L201.1,155.1L199.3,155.1L197.2,154.3L195.8,153.5L194.1,153.5L192.7,153.3L189.7,152.7L187.5,152.2L184.9,151.7L182.7,151.3L180.7,150.6L178.6,150.6L176.3,150.1L174.8,149.9L172.9,149.4L170.6,144.4L169.1,143.6L168.2,142.3L168.3,140.7L167.1,139.7L166.1,139.4Z" fill="#E5E5E5" stroke="#FFFFFF" stroke-width="0.5"/><path d="M155.1,139.3L152.7,138.8L148.1,137.9L146.8,138.6L145.2,139.3L143.9,140.1L142.9,141.2L141.5,142.3L140.2,143.4L135.1,144.1L129.2,144.4L128.4,146.3L131.9,149.4L134.0,153.2L133.0,154.7L131.1,156.3L135.2,159.2L141.3,159.3L143.1,160.4L144.1,162.0L144.4,163.8L148.9,164.7L149.8,163.4L151.4,162.6L152.9,161.1L154.0,159.3L155.4,156.8L158.2,151.7L152.9,150.6L153.6,148.7L155.3,142.8L155.2,141.2L155.1,139.6L155.1,139.3Z" fill="#E5E5E5" stroke="#FFFFFF" stroke-width="0.5"/><path d="M187.5,139.1L185.1,138.6L174.7,137.2L168.6,137.7L166.1,139.4L167.6,139.8L168.2,141.3L168.5,142.7L169.6,143.9L172.5,148.3L173.4,149.6L175.8,150.0L177.4,150.3L180.5,150.9L182.0,151.2L183.6,151.5L186.3,152.0L188.9,152.5L191.9,153.1L193.9,153.5L195.6,153.8L197.2,154.3L198.7,154.3L200.4,155.3L203.6,155.6L206.3,156.4L208.1,156.4L208.1,150.9L207.8,148.6L208.2,146.6L208.7,145.0L209.3,143.5L210.1,141.9L208.0,141.1L205.5,140.9L203.9,140.8L202.0,140.6L200.3,140.5L198.4,140.4L194.9,140.2L193.4,140.6L187.7,139.5L187.5,139.1Z" fill="#E5E5E5" stroke="#FFFFFF" stroke-width="0.5"/><path d="M350.1,150.2L346.9,149.6L339.7,145.6L337.4,144.4L339.8,141.0L334.4,135.6L325.5,134.1L322.4,139.0L321.8,142.9L321.2,145.9L320.3,151.2L323.1,155.1L328.3,163.8L330.0,163.1L331.5,162.9L333.1,162.9L334.7,162.5L336.3,162.6L337.5,163.6L339.0,163.5L340.5,163.2L342.0,162.8L343.5,162.4L345.0,162.9L346.5,162.7L348.0,162.9L349.4,163.5L350.6,164.6L351.6,165.8L352.3,167.2L353.2,168.4L354.7,168.5L356.2,168.8L357.4,169.8L359.0,164.2L363.4,164.8L367.1,152.9L360.1,151.6L350.1,150.2Z" fill="#E5E5E5" stroke="#FFFFFF" stroke-width="0.5"/><path d="M370.8,139.9L369.3,139.2L362.8,136.3L353.0,131.8L351.3,138.0L350.6,140.6L349.1,144.4L352.1,145.0L350.1,150.2L359.8,151.8L366.7,152.8L368.2,149.0L370.4,141.5L370.8,139.9Z" fill="#E5E5E5" stroke="#FFFFFF" stroke-width="0.5"/><path d="M270.0,125.4L268.4,125.2L266.0,125.3L264.4,124.5L262.9,124.7L263.4,126.5L257.4,128.6L255.7,129.0L254.1,129.1L252.2,129.2L250.1,129.3L248.2,130.1L247.1,131.4L244.7,131.0L243.0,130.0L239.0,132.6L236.6,134.1L235.3,134.8L227.8,134.1L226.0,133.8L224.1,133.5L222.4,133.2L220.7,133.0L211.7,131.2L210.4,141.4L213.1,141.9L218.0,142.9L219.7,143.8L221.2,143.6L225.1,144.2L230.0,145.2L231.9,145.6L234.5,146.0L236.2,146.4L238.2,146.7L241.0,147.0L250.0,146.8L251.4,147.3L252.8,146.8L254.4,147.0L255.7,146.1L257.2,146.3L258.7,146.9L260.1,147.5L259.3,148.8L258.6,150.2L259.4,151.5L260.9,151.4L262.3,150.9L263.2,149.6L265.1,147.3L267.0,145.7L269.3,145.4L268.9,141.5L269.1,139.6L268.7,137.0L268.6,135.4L267.8,134.2L268.3,132.8L268.8,131.2L269.5,129.9L269.7,128.4L269.7,126.8L270.0,125.4Z" fill="#E5E5E5" stroke="#FFFFFF" stroke-width="0.5"/><path d="M160.2,123.4L158.4,122.8L154.1,123.0L154.8,124.4L154.9,125.9L137.6,123.5L136.5,129.2L136.0,132.3L133.9,135.1L143.6,137.1L148.1,137.9L152.7,138.8L155.1,139.3L157.8,138.0L158.9,139.7L160.5,140.0L162.0,140.1L163.5,139.9L165.0,139.3L168.6,137.7L174.7,137.2L185.2,139.1L187.5,139.1L193.4,140.6L192.6,139.3L191.6,138.2L190.3,137.2L190.1,135.6L190.7,134.2L185.5,134.2L183.3,134.4L181.5,134.6L181.7,132.9L182.0,130.9L180.6,130.0L178.7,129.7L177.8,126.8L175.3,127.3L170.3,127.5L165.5,125.3L162.4,124.7L159.9,124.4L160.2,123.4Z" fill="#E5E5E5" stroke="#FFFFFF" stroke-width="0.5"/><path d="M353.0,131.8L350.6,130.8L346.1,128.7L339.2,125.6L336.7,124.5L332.7,122.7L328.5,129.4L325.6,133.9L334.4,135.6L339.8,141.0L337.4,144.4L339.7,145.6L347.1,149.3L350.1,150.2L352.1,145.0L349.1,144.4L350.6,140.6L351.3,138.0L353.0,131.8Z" fill="#E5E5E5" stroke="#FFFFFF" stroke-width="0.5"/><path d="M129.7,119.2L128.2,119.4L126.7,120.0L125.4,120.7L124.1,121.4L122.8,122.2L121.5,123.1L120.0,123.1L118.7,122.2L117.4,121.5L105.2,125.3L96.8,128.0L96.7,129.7L96.2,133.3L96.0,135.6L95.4,139.9L95.2,141.7L94.6,146.0L93.4,157.3L92.2,168.1L102.2,168.8L109.4,169.3L113.5,169.6L114.4,162.6L115.7,163.4L119.3,165.6L136.3,175.8L137.1,174.5L138.2,172.8L139.0,171.4L139.9,170.0L140.7,168.7L141.7,167.0L142.7,165.5L143.9,164.2L144.2,162.3L143.4,160.8L141.6,159.1L135.2,159.2L131.1,156.3L133.0,154.7L134.0,153.2L132.4,150.2L127.7,147.0L129.2,144.4L135.1,144.1L139.4,144.0L140.6,143.0L142.1,141.8L143.3,140.8L144.4,139.7L145.8,139.0L147.7,138.4L143.6,137.1L133.9,135.1L136.0,132.3L136.5,129.2L137.6,123.6L136.1,123.5L130.5,123.6L129.7,119.2Z" fill="#E5E5E5" stroke="#FFFFFF" stroke-width="0.5"/><path d="M332.7,122.7L321.4,117.7L296.6,106.6L295.0,107.8L293.9,108.8L293.6,110.3L292.7,111.5L291.4,112.3L290.5,113.5L290.7,115.0L292.2,115.2L293.2,116.3L292.9,117.8L293.2,119.3L294.1,120.5L293.7,122.0L293.4,123.4L292.1,124.3L291.2,125.5L290.8,127.0L289.2,127.2L287.6,127.5L286.6,128.7L286.7,130.2L285.5,131.3L285.2,132.8L283.8,133.5L282.6,132.6L281.1,133.6L280.1,134.7L279.6,136.2L281.0,135.5L282.1,136.6L283.5,137.3L284.2,138.7L283.4,140.0L282.7,141.3L284.0,142.1L285.5,142.7L287.1,143.0L286.9,144.6L287.3,146.1L288.7,146.6L288.7,148.1L289.7,149.4L291.2,149.0L292.5,149.9L293.9,150.4L294.9,149.4L295.4,147.9L297.0,147.5L298.5,147.3L299.9,146.5L301.3,147.0L302.8,147.4L304.2,147.0L306.9,144.2L310.8,140.6L317.9,139.6L322.4,139.0L325.5,134.1L328.5,129.4L332.7,122.7Z" fill="#E5E5E5" stroke="#FFFFFF" stroke-width="0.5"/><path d="M101.0,108.7L97.7,107.1L95.0,105.7L93.6,105.0L91.0,103.6L86.8,101.1L83.8,99.5L77.0,105.7L71.7,111.1L65.7,117.3L59.7,123.5L58.6,124.6L57.2,126.0L53.6,129.7L48.8,134.7L44.6,139.0L38.8,145.0L36.4,147.5L36.1,149.2L36.1,150.9L35.4,152.4L34.2,153.4L35.4,154.9L54.9,163.7L57.4,164.8L60.1,165.4L64.5,165.8L71.4,166.4L74.1,166.7L75.9,166.8L77.6,166.9L79.8,167.1L81.7,167.3L83.7,167.4L85.4,167.5L89.2,167.9L92.2,168.1L93.4,157.3L94.6,146.0L95.2,141.7L95.4,139.9L96.0,135.6L96.2,133.3L96.7,129.7L96.8,128.0L105.2,125.3L117.2,121.4L115.7,121.3L115.5,119.8L115.2,118.2L114.7,116.7L113.5,115.7L112.1,115.2L110.6,114.3L109.1,114.4L107.7,113.6L106.1,112.8L104.9,111.9L104.0,110.7L102.9,109.6L101.4,108.9L101.0,108.7Z" fill="#E5E5E5" stroke="#FFFFFF" stroke-width="0.5"/><path d="M296.6,106.6L290.2,103.8L277.0,98.0L277.1,99.5L277.1,103.0L276.9,104.8L267.8,107.3L267.5,109.6L269.3,109.4L269.7,111.5L268.0,112.4L268.0,116.1L268.4,117.6L267.9,120.4L269.6,120.1L270.3,121.5L269.6,123.9L270.0,125.4L269.6,127.0L269.7,128.5L269.4,130.0L268.6,131.4L268.3,132.9L267.8,134.3L268.8,135.6L269.6,136.8L269.1,139.6L268.9,141.5L269.3,145.4L267.8,145.5L266.2,146.2L263.7,148.8L265.2,148.1L266.5,147.2L267.8,146.5L268.7,147.7L269.0,149.2L268.5,150.7L267.4,151.8L266.5,153.0L268.0,153.4L269.5,153.0L271.0,152.9L271.7,154.3L272.1,155.8L273.2,156.8L274.7,156.6L276.1,156.3L277.6,156.2L279.2,156.1L280.6,156.6L282.1,156.8L283.6,156.6L284.7,157.6L285.0,159.1L286.1,160.2L286.6,161.6L286.5,163.2L287.6,164.4L289.1,164.8L290.7,165.0L292.2,165.1L293.8,165.4L295.1,163.2L295.0,161.4L293.7,160.3L292.3,159.0L293.8,158.0L294.7,159.3L296.6,157.5L300.0,157.8L300.9,156.5L301.8,155.3L302.9,154.2L303.0,152.6L303.1,151.1L303.9,149.8L304.7,147.8L303.2,147.3L301.7,147.2L300.3,146.4L298.8,147.1L297.3,147.4L295.8,147.5L295.2,148.9L294.4,150.3L293.0,150.6L291.6,149.7L290.1,149.5L289.1,148.3L289.2,146.8L287.7,147.1L286.9,145.8L287.0,144.2L285.6,143.5L284.4,142.5L282.9,142.0L283.2,140.5L284.1,139.2L283.8,137.6L282.4,137.0L281.7,135.6L280.6,136.6L279.5,135.6L280.5,134.2L281.6,133.1L283.1,132.8L284.5,133.7L285.4,132.4L285.9,130.9L286.6,129.6L287.0,128.1L288.2,127.2L289.7,127.4L290.4,126.1L291.7,125.3L292.6,124.1L293.4,122.8L293.8,121.4L294.2,119.9L292.9,119.2L292.8,117.7L293.1,116.2L292.1,115.0L290.6,114.6L290.5,113.0L291.7,112.1L293.0,111.2L293.7,109.9L294.7,108.7L295.3,107.2L296.6,106.6Z" fill="#E5E5E5" stroke="#FFFFFF" stroke-width="0.5"/><path d="M171.9,101.1L158.7,95.8L157.8,97.7L153.6,96.0L152.0,97.5L148.8,99.0L146.3,101.3L144.8,100.7L143.4,102.4L139.7,102.2L138.0,101.4L136.5,101.8L135.8,103.1L135.6,104.7L135.2,106.2L134.8,107.7L134.4,109.2L133.8,110.6L133.3,112.1L132.7,113.5L133.0,115.0L133.5,116.4L135.1,116.6L136.6,117.1L135.2,117.8L133.9,118.8L132.5,119.4L131.0,119.3L130.5,123.6L136.1,123.5L137.6,123.5L154.3,126.7L155.2,125.5L154.7,124.0L158.4,122.8L160.2,123.4L162.4,124.7L165.5,125.3L166.3,123.9L165.9,122.3L166.5,120.9L167.3,119.6L168.2,118.4L170.2,117.1L171.1,114.5L171.4,111.6L171.5,110.0L171.5,108.3L171.7,106.1L171.8,103.6L171.9,101.1Z" fill="#E5E5E5" stroke="#FFFFFF" stroke-width="0.5"/><path d="M207.8,95.9L204.2,95.0L203.0,96.6L205.8,97.3L205.1,98.6L203.9,101.7L205.2,103.6L207.7,104.5L209.9,104.7L211.6,105.2L213.1,105.6L212.6,109.0L212.9,119.7L211.7,120.9L210.0,120.6L206.3,120.6L205.5,122.7L204.8,124.1L208.0,125.0L207.1,127.1L206.1,129.2L208.9,129.9L211.7,131.2L220.7,133.0L222.4,133.2L224.1,133.5L226.0,133.8L227.7,134.1L234.4,135.4L236.1,134.5L239.0,132.6L243.0,130.0L244.7,131.0L246.2,131.7L247.3,130.3L249.4,130.2L250.9,129.3L252.9,129.2L254.8,129.1L257.4,128.6L263.8,127.9L263.0,125.4L256.2,121.8L254.2,121.4L252.8,120.6L251.2,120.0L249.0,120.2L242.4,117.1L240.9,116.4L239.7,115.5L238.5,114.6L237.0,114.4L235.8,113.4L234.2,113.9L233.0,113.0L231.5,112.6L229.9,112.6L228.5,112.0L227.0,111.6L225.5,111.2L224.3,110.3L223.5,109.0L223.9,107.6L224.5,106.1L224.3,104.6L218.0,103.5L216.8,97.9L215.1,97.8L215.3,95.5L207.8,96.2L207.8,95.9Z" fill="#E5E5E5" stroke="#FFFFFF" stroke-width="0.5"/><path d="M254.4,104.3L253.4,102.9L252.3,101.3L250.5,100.3L248.1,99.4L246.2,98.7L243.2,97.5L241.6,96.9L238.9,95.8L237.3,95.2L223.9,100.0L218.0,103.5L224.2,104.6L224.5,106.1L224.0,107.5L223.5,109.0L224.3,110.3L225.5,111.2L227.0,111.6L228.5,112.0L229.9,112.6L231.5,112.6L232.9,113.0L234.2,113.9L235.7,113.4L237.0,114.4L238.5,114.6L239.7,115.5L240.9,116.4L242.4,117.1L249.2,119.4L250.9,120.1L252.4,120.7L253.9,121.3L256.1,121.2L262.7,123.9L264.4,124.5L266.0,125.3L267.6,125.2L269.8,125.4L270.1,123.9L269.2,122.3L269.6,120.1L267.9,120.4L267.6,117.7L268.1,116.1L267.5,113.8L269.2,112.3L269.3,109.4L267.5,109.6L267.2,108.0L263.0,107.8L260.3,108.2L258.4,107.5L254.6,104.4L254.4,104.3Z" fill="#E5E5E5" stroke="#FFFFFF" stroke-width="0.5"/><path d="M189.1,94.5L187.1,93.9L187.6,95.5L187.4,97.0L184.0,97.1L183.4,99.7L178.1,99.3L176.7,99.8L172.0,99.0L171.9,101.1L171.8,103.5L171.7,106.1L171.5,108.3L171.5,109.8L171.4,111.6L171.3,114.5L170.8,116.4L169.4,117.7L168.0,118.6L167.2,119.9L166.3,121.1L165.9,122.6L166.1,124.1L170.8,126.4L174.0,128.0L176.8,126.8L177.3,129.5L180.6,130.0L182.1,130.2L181.8,131.9L181.5,133.9L183.3,134.4L185.5,134.2L190.7,133.6L190.1,135.1L189.7,136.6L191.0,137.4L191.9,138.5L193.1,139.7L194.9,140.2L197.7,140.3L199.4,140.4L201.3,140.5L203.1,140.6L204.6,140.8L207.0,141.1L209.4,141.3L211.7,131.2L208.7,130.6L206.1,129.2L207.1,127.1L208.0,125.0L205.8,124.5L205.5,122.7L206.3,120.6L209.6,121.5L211.7,120.9L212.9,119.7L212.6,109.0L212.7,106.7L211.6,105.2L209.9,104.7L208.4,104.3L205.3,103.4L203.2,102.7L201.7,100.7L192.8,98.3L193.7,95.6L191.6,95.1L189.1,94.5Z" fill="#E5E5E5" stroke="#FFFFFF" stroke-width="0.5"/><path d="M50.1,87.1L47.5,86.1L42.6,84.1L35.6,81.3L33.2,80.3L31.9,82.9L30.2,86.0L29.2,88.1L26.7,92.8L23.9,98.5L23.0,100.2L22.0,102.1L21.1,104.0L12.1,121.9L10.8,124.3L9.2,127.5L11.7,129.3L13.6,130.8L15.1,131.9L16.8,133.2L18.2,134.6L25.0,143.2L28.0,147.0L29.0,148.3L30.1,149.7L32.3,152.4L33.6,154.0L34.9,153.0L35.8,151.5L36.2,149.9L36.0,148.3L38.7,145.1L44.6,139.0L48.8,134.7L53.6,129.7L56.9,126.3L58.4,124.8L59.7,123.5L65.7,117.3L71.7,111.1L77.0,105.7L83.2,99.3L64.7,93.7L63.3,93.1L61.7,92.3L59.9,91.5L58.5,90.9L53.4,88.6L51.4,87.7L50.1,87.1Z" fill="#E5E5E5" stroke="#FFFFFF" stroke-width="0.5"/><path d="M277.0,98.0L264.8,92.5L253.1,87.3L236.4,79.9L219.0,72.2L216.0,70.9L213.2,76.4L212.7,78.2L212.3,79.9L210.6,82.4L208.9,89.1L207.8,95.9L215.3,95.5L214.8,97.8L216.3,97.8L218.0,103.5L223.9,100.0L237.1,95.1L238.9,95.8L240.8,96.6L243.2,97.5L245.2,98.3L248.0,99.4L249.9,100.1L251.7,100.8L252.7,102.0L254.0,103.8L258.4,107.5L260.3,108.2L263.0,107.8L267.8,107.3L277.3,106.2L276.8,104.3L277.1,99.5L277.0,98.0Z" fill="#E5E5E5" stroke="#FFFFFF" stroke-width="0.5"/><path d="M161.9,68.7L158.4,67.4L153.7,65.9L149.7,65.3L133.3,66.7L131.1,67.0L128.7,67.3L127.7,68.4L126.7,69.6L125.6,70.9L124.8,73.5L123.9,77.4L115.5,78.8L113.5,78.6L112.8,84.1L113.1,85.6L113.0,87.1L112.4,88.5L111.5,89.8L110.2,90.5L109.1,91.6L108.3,92.9L108.9,94.3L110.7,96.2L112.3,97.3L116.8,98.3L118.2,99.0L119.5,99.8L120.1,101.2L121.7,101.5L126.4,102.4L135.1,104.3L135.9,103.0L136.9,101.7L139.7,102.2L143.0,103.6L144.2,101.2L146.3,101.3L147.8,98.4L150.6,97.6L152.5,96.9L157.8,97.7L158.7,95.8L171.9,101.1L172.0,99.0L169.2,98.5L163.8,96.1L163.5,94.5L164.9,92.4L162.9,91.6L162.8,89.8L168.7,91.3L167.0,88.3L166.2,86.9L165.2,85.1L161.8,84.1L163.8,83.1L164.1,81.5L164.4,79.9L165.2,78.5L165.5,76.6L165.6,75.1L168.8,75.0L170.7,75.6L170.1,74.0L170.7,70.9L167.8,70.3L161.6,69.9L161.9,68.7Z" fill="#E5E5E5" stroke="#FFFFFF" stroke-width="0.5"/><path d="M216.0,70.9L194.7,61.4L190.3,59.4L184.9,57.0L182.8,56.2L181.3,60.5L180.6,62.3L181.0,64.4L179.5,64.8L177.8,64.2L176.0,63.8L173.7,63.4L172.2,67.4L172.1,69.8L170.7,70.9L170.4,73.1L170.7,75.6L168.8,75.0L166.1,74.1L165.6,75.6L165.4,77.1L165.1,78.6L164.3,80.2L164.1,81.8L161.7,83.8L165.2,85.1L166.2,86.9L167.0,88.3L168.7,91.3L162.7,89.0L162.9,90.6L164.9,92.4L163.5,94.5L163.8,96.1L169.3,98.4L172.0,99.0L176.7,99.8L178.1,99.3L183.4,99.7L184.0,97.1L186.7,97.6L187.7,96.5L187.5,95.0L186.2,94.0L189.1,94.5L191.6,95.1L193.7,95.6L192.8,98.3L201.7,100.7L203.9,101.7L205.1,98.6L205.8,97.3L203.0,96.6L204.2,95.0L207.8,95.9L208.7,89.1L210.6,82.4L211.1,80.2L212.4,79.3L212.9,77.5L216.0,70.9Z" fill="#E5E5E5" stroke="#FFFFFF" stroke-width="0.5"/><path d="M182.8,56.2L174.2,52.4L167.7,49.5L165.6,48.6L158.8,45.5L135.6,35.3L133.6,34.5L116.6,27.0L72.2,8.0L44.8,58.9L43.4,61.5L42.2,63.7L36.8,73.8L33.2,80.3L35.6,81.3L42.6,84.1L47.5,86.1L50.1,87.1L53.4,88.6L58.4,90.8L59.9,91.5L61.7,92.3L63.3,93.1L64.7,93.7L83.2,99.3L86.8,101.1L91.0,103.6L93.6,105.0L95.0,105.7L97.7,107.1L101.0,108.7L102.4,109.3L103.7,110.2L104.5,111.5L105.7,112.6L107.2,113.4L108.4,114.4L109.7,113.8L111.5,114.7L113.3,115.6L114.5,116.6L115.2,118.2L115.5,119.8L115.5,121.3L117.1,121.4L118.4,122.2L119.8,122.9L121.4,123.2L122.7,122.4L124.1,121.4L125.4,120.7L126.7,120.0L128.1,119.4L129.7,119.2L131.2,119.3L132.8,119.3L134.3,118.5L135.6,117.7L137.1,117.9L136.4,116.6L134.9,116.5L133.4,116.3L132.9,114.8L132.8,113.3L133.5,111.9L133.8,110.4L134.5,109.0L134.9,107.4L135.3,105.9L135.1,104.4L127.8,102.7L122.6,101.7L120.9,101.4L119.4,100.8L118.8,99.4L117.6,98.5L112.3,97.3L110.7,96.2L109.6,94.8L108.4,93.8L108.5,92.3L109.7,91.4L110.7,90.2L112.0,89.5L112.7,87.9L113.0,86.4L112.8,84.9L113.5,78.6L115.5,78.8L123.9,77.4L124.6,74.5L125.4,71.8L126.0,70.4L126.9,69.1L128.0,68.1L131.1,67.0L133.3,66.7L149.7,65.3L153.7,65.9L158.4,67.4L161.8,68.7L167.7,70.7L170.7,70.9L172.1,69.8L172.5,67.5L173.7,63.4L175.9,63.8L177.6,64.1L179.0,64.6L181.0,64.4L181.6,62.9L181.2,60.5L182.8,56.2Z" fill="#E5E5E5" stroke="#FFFFFF" stroke-width="0.5"/><path d="M239.5,284.3L237.1,283.3L236.6,281.6L231.4,280.6L230.0,279.7L228.5,281.5L225.3,285.9L223.3,288.6L219.7,293.2L215.8,298.3L218.7,299.9L228.8,305.9L234.5,296.9L236.9,292.9L239.7,288.6L239.8,287.1L239.6,285.4L239.5,284.3Z" fill="#E5E5E5" stroke="#FFFFFF" stroke-width="0.5"/><path d="M287.8,326.6L284.6,324.6L283.3,325.7L281.9,326.5L280.8,327.5L279.5,328.5L277.7,328.2L276.2,328.5L277.2,329.7L278.3,330.8L278.2,332.3L278.6,333.7L277.5,334.8L279.9,337.3L281.6,338.2L284.3,339.6L286.0,340.5L287.5,341.3L288.9,342.1L290.4,342.9L291.9,343.6L294.1,340.4L295.7,338.8L295.5,337.3L296.5,335.8L296.3,334.3L297.3,333.0L298.3,331.8L299.5,330.3L294.1,327.2L292.7,329.3L287.8,326.6Z" fill="#E5E5E5" stroke="#FFFFFF" stroke-width="0.5"/><path d="M314.0,323.6L311.1,322.0L307.3,320.0L304.2,318.3L301.5,316.8L297.9,322.2L295.4,325.3L294.1,327.2L299.6,330.2L298.3,331.8L297.3,333.0L296.3,334.3L296.5,335.8L295.2,337.1L296.6,337.8L294.1,340.4L292.4,343.1L293.3,344.3L294.7,345.0L296.5,344.7L298.0,343.4L298.6,341.8L299.2,340.3L300.7,340.3L301.8,339.3L302.7,337.7L305.5,336.4L307.2,334.7L308.1,333.0L309.1,331.4L309.9,330.0L311.5,327.8L312.4,326.5L313.6,324.7L314.0,323.6Z" fill="#E5E5E5" stroke="#FFFFFF" stroke-width="0.5"/><path d="M298.0,351.8L298.6,350.3L299.6,349.2L301.0,348.6L302.9,348.8L301.4,348.0L302.4,346.8L304.2,346.8L306.4,346.6L303.9,345.2L305.5,344.5L307.8,344.5L307.7,343.0L308.5,341.3L309.5,340.2L311.0,339.5L310.1,338.3L310.6,336.8L311.7,335.8L312.8,334.7L313.9,333.6L314.9,332.3L315.8,331.1L316.7,329.7L317.5,328.2L318.5,326.9L319.6,325.3L319.6,323.8L320.9,322.8L321.6,321.3L321.7,319.7L322.4,318.2L322.9,316.5L323.4,315.1L321.2,314.3L321.4,312.7L323.0,312.5L323.7,311.2L323.4,309.7L324.5,308.7L325.6,307.5L326.5,306.1L327.4,304.8L328.5,303.7L326.7,304.3L326.0,302.9L324.6,303.8L323.0,303.4L322.5,304.9L321.8,306.2L320.8,307.4L319.6,309.0L318.6,310.3L318.2,311.8L317.9,313.4L317.0,315.1L317.2,316.7L317.2,318.2L316.7,319.6L315.6,320.8L314.7,322.6L313.6,324.7L312.6,326.2L311.5,327.8L310.9,329.3L309.2,331.4L308.1,333.0L307.3,334.6L306.2,336.0L303.6,338.2L301.8,339.3L300.7,340.3L299.2,340.3L298.6,341.8L298.0,343.4L296.6,344.1L295.8,345.6L297.2,346.4L296.8,348.6L296.6,350.2L298.0,351.8Z" fill="#E5E5E5" stroke="#FFFFFF" stroke-width="0.5"/><path d="M288.1,176.2L286.6,175.8L285.5,174.8L284.4,175.8L283.0,175.5L282.9,177.0L281.4,176.9L280.3,175.8L279.1,176.8L277.6,177.2L278.0,178.7L276.5,178.4L277.0,179.9L275.4,180.2L274.0,179.6L273.5,181.1L272.3,181.9L271.0,182.7L269.7,183.5L268.6,182.5L267.5,183.6L267.4,185.1L266.2,186.0L264.7,186.3L263.3,187.5L265.5,189.0L270.3,190.5L277.6,191.8L287.7,192.2L297.7,192.6L314.9,193.2L315.4,189.6L315.9,183.5L316.2,179.3L304.0,178.8L305.2,176.6L288.1,176.2Z" fill="#FF1200" stroke="#FFFFFF" stroke-width="0.5"/></svg>